<svg width="17" height="17" viewBox="0 0 17 17" fill="none" xmlns="http://www.w3.org/2000/svg">
<path d="M3.47694 10.2737L2.11386 8.70745L0.750015 10.2737M13.0231 6.23322L14.3862 7.80035L15.75 6.23322" stroke="#257448" stroke-width="1.5" stroke-linecap="round" stroke-linejoin="round"/>
<path d="M14.3862 7.80035C14.3862 5.92967 13.74 4.13752 12.5893 2.81481C12.0198 2.1603 11.3435 1.64103 10.5989 1.28673C9.85431 0.932423 9.05613 0.750034 8.25003 0.750002C7.46701 0.74929 6.69125 0.922174 5.96541 1.25914C5.15515 1.63181 4.4235 2.19844 3.81929 2.92121C3.21508 3.64398 2.75221 4.50627 2.46157 5.45053M2.11388 8.70657C2.11506 10.343 2.61184 11.9282 3.51926 13.1909C4.4257 14.4521 5.68681 15.3118 7.08585 15.6221C8.48488 15.9324 9.93445 15.674 11.1854 14.8913C12.4363 14.107 13.411 12.8488 13.9431 11.3317" stroke="#257448" stroke-width="1.5" stroke-linecap="round" stroke-linejoin="round"/>
<path d="M6.38849 9.98429C6.42853 10.5081 6.64577 10.9932 6.9937 11.3355C7.34163 11.6779 7.79259 11.8504 8.25003 11.8161C9.75157 11.8161 10.1116 10.8252 10.1116 9.98429C10.1116 9.14336 9.4908 8.25214 8.25003 8.25214C7.00926 8.25214 6.38849 7.68917 6.38849 6.54206C6.40571 6.14456 6.52807 5.76251 6.73929 5.44677C6.9505 5.13103 7.24054 4.89657 7.5708 4.77462C7.79003 4.69344 8.0208 4.66432 8.25003 4.68903C8.70804 4.66619 9.15628 4.84556 9.50253 5.19023C9.84879 5.53491 10.0667 6.01868 10.1116 6.54206M8.25003 12.8838V11.9564M8.25003 3.6178V4.6855" stroke="#257448" stroke-width="1.5" stroke-linecap="round" stroke-linejoin="round"/>
</svg>
