<svg width="15" height="15" viewBox="0 0 15 15" fill="none" xmlns="http://www.w3.org/2000/svg">
<path d="M7.5 0C6.01664 0 4.56659 0.439867 3.33323 1.26398C2.09986 2.08809 1.13856 3.25943 0.570907 4.62987C0.00324969 6.00032 -0.145275 7.50832 0.144114 8.96317C0.433503 10.418 1.14781 11.7544 2.1967 12.8033C3.2456 13.8522 4.58197 14.5665 6.03682 14.8559C7.49168 15.1453 8.99968 14.9967 10.3701 14.4291C11.7406 13.8614 12.9119 12.9001 13.736 11.6668C14.5601 10.4334 15 8.98336 15 7.5C14.9972 5.51172 14.2062 3.60567 12.8003 2.19974C11.3943 0.793817 9.48828 0.00275576 7.5 0ZM7.5 14.1177C6.19123 14.1173 4.91197 13.7288 3.82397 13.0014C2.73597 12.274 1.88808 11.2403 1.38752 10.031C0.886964 8.82178 0.756209 7.49124 1.01179 6.20767C1.26737 4.9241 1.89781 3.74513 2.8234 2.81984C3.74898 1.89454 4.92815 1.26447 6.2118 1.0093C7.49545 0.75412 8.82595 0.885294 10.0351 1.38623C11.2442 1.88717 12.2776 2.73538 13.0047 3.82361C13.7317 4.91184 14.1198 6.19123 14.1198 7.5C14.1179 9.25489 13.4197 10.9373 12.1786 12.178C10.9375 13.4187 9.2549 14.1163 7.5 14.1177ZM10.8333 3.57604L6.12709 5.92916C6.04122 5.97168 5.97169 6.04122 5.92917 6.12708L3.57604 10.8323C3.53415 10.9152 3.51951 11.0092 3.53423 11.1009C3.54894 11.1926 3.59226 11.2773 3.65799 11.3429C3.72372 11.4085 3.8085 11.4517 3.90023 11.4662C3.99196 11.4808 4.08594 11.466 4.16875 11.424L8.87396 9.07291C8.95982 9.03039 9.02936 8.96086 9.07188 8.875L11.4271 4.16667C11.4692 4.08367 11.484 3.98947 11.4693 3.89756C11.4546 3.80565 11.4112 3.72076 11.3452 3.65506C11.2793 3.58936 11.1943 3.54622 11.1023 3.53184C11.0103 3.51746 10.9162 3.53361 10.8333 3.57604ZM8.34896 8.34583L4.95834 10.0437L6.64896 6.65312L10.0396 4.9625L8.34896 8.34583Z" fill="#257448"/>
</svg>
