<?xml version="1.0" encoding="UTF-8"?>
<svg version="1.1" xmlns="http://www.w3.org/2000/svg" width="1224" height="864">
<path d="M0 0 C403.92 0 807.84 0 1224 0 C1224 285.12 1224 570.24 1224 864 C820.08 864 416.16 864 0 864 C0 578.88 0 293.76 0 0 Z " fill="#FEFEFE" transform="translate(0,0)"/>
<path d="M0 0 C2.73461914 1.30004883 2.73461914 1.30004883 5.53515625 2.95703125 C6.5826001 3.56788574 7.63004395 4.17874023 8.70922852 4.80810547 C10.98173988 6.16648321 13.25155088 7.52874837 15.51928711 8.89501953 C16.68933335 9.59639298 17.85999077 10.29674782 19.03125 10.99609375 C19.61399185 11.34468445 20.1967337 11.69327515 20.7971344 12.0524292 C24.54876325 14.25748787 28.33657335 16.09589349 32.34375 17.78515625 C43.6087389 22.74426136 43.6087389 22.74426136 47 27 C49.66435427 35.04890256 48.95335531 43.69067468 48 52 C50.73142541 50.50400045 53.46027807 49.00363249 56.1875 47.5 C57.00452393 47.05164795 57.82154785 46.6032959 58.66333008 46.14135742 C62.46495971 44.03744898 66.21541759 41.91225367 69.84375 39.51953125 C70.41456299 39.14570313 70.98537598 38.771875 71.57348633 38.38671875 C73.09493964 37.37410424 74.60078327 36.33814808 76.10546875 35.30078125 C79.90590536 33.59289273 81.9507335 34.14605849 86 35 C89.02270508 36.39526367 89.02270508 36.39526367 92.01953125 38.16796875 C93.12490234 38.81443359 94.23027344 39.46089844 95.36914062 40.12695312 C96.51707253 40.81355898 97.66485838 41.50040906 98.8125 42.1875 C99.93720703 42.84814453 101.06191406 43.50878906 102.22070312 44.18945312 C105.48860149 46.11297494 108.74556547 48.05380471 112 50 C113.49345947 50.88679443 113.49345947 50.88679443 115.01708984 51.79150391 C115.92281738 52.33081543 116.82854492 52.87012695 117.76171875 53.42578125 C118.55924561 53.90055908 119.35677246 54.37533691 120.1784668 54.86450195 C122 56 122 56 123 57 C123.02379011 58.99930177 122.97719605 60.99946254 122.90380859 62.99755859 C122.86242767 64.28334808 122.82104675 65.56913757 122.77841187 66.89389038 C122.75589733 67.58641277 122.7333828 68.27893517 122.710186 68.99244308 C122.58290212 73.43665331 122.54023347 77.88256262 122.48885155 82.32819176 C122.43906377 86.23097923 122.35538619 90.12695533 122.19433594 94.02685547 C120.85028502 110.4541877 120.85028502 110.4541877 125.74908447 125.4151001 C130.15068275 129.2569303 135.14383631 131.29813062 140.6305542 133.15057373 C143.94864871 134.34008254 146.65066885 136.00591531 149.6328125 137.8828125 C150.55964844 138.429375 151.48648438 138.9759375 152.44140625 139.5390625 C153.32699219 140.06242188 154.21257812 140.58578125 155.125 141.125 C156.08019531 141.68703125 157.03539062 142.2490625 158.01953125 142.828125 C158.92316406 143.36179687 159.82679688 143.89546875 160.7578125 144.4453125 C161.5533252 144.91469238 162.34883789 145.38407227 163.16845703 145.86767578 C165 147 165 147 166 148 C166.09429342 150.17805719 166.11742538 152.3592128 166.11352539 154.53930664 C166.11367142 155.22220261 166.11381744 155.90509857 166.1139679 156.60868835 C166.11326876 158.87587614 166.1054764 161.14298274 166.09765625 163.41015625 C166.09579207 164.97814387 166.09436817 166.54613207 166.09336853 168.11412048 C166.08954334 172.24876503 166.07971306 176.38337466 166.06866455 180.51800537 C166.05845044 184.73400398 166.05387091 188.95000822 166.04882812 193.16601562 C166.03809078 201.44402826 166.02049399 209.72200577 166 218 C158.08 218 150.16 218 142 218 C142 196.22 142 174.44 142 152 C140.35 151.34 138.7 150.68 137 150 C134.83575835 148.78883316 132.69153486 147.54156805 130.5625 146.26953125 C129.32591454 145.54164843 128.08892293 144.81445526 126.8515625 144.08789062 C124.91866602 142.94887993 122.98875393 141.80574583 121.06542969 140.65063477 C119.19700228 139.53105364 117.31852174 138.43028424 115.4375 137.33203125 C114.32246094 136.66921143 113.20742188 136.0063916 112.05859375 135.32348633 C108.66569356 133.85534202 107.42722217 133.78061293 104 135 C101.54718964 136.3021092 99.18350976 137.62800193 96.8125 139.0625 C90.25 143 90.25 143 88 143 C88 155.21 88 167.42 88 180 C82.72 180 77.44 180 72 180 C72 139.74 72 99.48 72 58 C60.615 64.435 60.615 64.435 49 71 C48.34 71 47.68 71 47 71 C47 131.06 47 191.12 47 253 C43.31305903 251.15652951 41.54465175 249.770156 38.734375 246.89453125 C37.92613281 246.07533203 37.11789062 245.25613281 36.28515625 244.41210938 C35.44855469 243.55423828 34.61195313 242.69636719 33.75 241.8125 C28.61766914 236.57139917 23.48224459 231.45642529 17.91113281 226.68188477 C14.62655679 223.79130681 11.57109799 220.67643519 8.5 217.5625 C7.86835937 216.92634766 7.23671875 216.29019531 6.5859375 215.63476562 C5.05494226 214.09217194 3.52712333 212.54642686 2 211 C-1.99085088 212.5983464 -4.63527077 215.39606945 -7.578125 218.41796875 C-8.10839294 218.95343826 -8.63866089 219.48890778 -9.18499756 220.04060364 C-10.87817056 221.75153752 -12.56452208 223.46898768 -14.25 225.1875 C-20.98022827 232.02986624 -27.65995745 238.80268595 -35 245 C-37.40976769 247.1601227 -39.81410026 249.32595341 -42.21484375 251.49609375 C-44 253 -44 253 -45 253 C-45.20531147 223.67426941 -45.36458552 194.34858981 -45.45958797 165.02228754 C-45.47084433 161.56010457 -45.48249323 158.09792303 -45.49438477 154.63574219 C-45.49674556 153.94648404 -45.49910635 153.25722589 -45.50153869 152.54708113 C-45.54070133 141.38645502 -45.61166219 130.22624612 -45.69437516 119.06586753 C-45.7785385 107.61428605 -45.82785485 96.16304318 -45.84679645 84.71114361 C-45.8585416 78.27855886 -45.88618951 71.84692032 -45.95157051 65.41463852 C-46.01259634 59.36186595 -46.03151704 53.31043052 -46.01796913 47.25737953 C-46.02044801 45.0344968 -46.03838998 42.81157002 -46.07284927 40.58895302 C-46.11758987 37.55471466 -46.10689311 34.52553389 -46.08229065 31.49118042 C-46.10850622 30.60984841 -46.1347218 29.7285164 -46.16173178 28.82047737 C-46.1054165 26.25412093 -45.95456285 24.38694597 -45 22 C-42.27651985 19.42740267 -39.30756771 17.72351568 -36 16 C-34.81068958 15.29291524 -33.62367749 14.58194093 -32.43969727 13.8659668 C-31.32651123 13.23343994 -30.2133252 12.60091309 -29.06640625 11.94921875 C-28.46239487 11.60494339 -27.85838348 11.26066803 -27.23606873 10.90596008 C-25.34661394 9.83005437 -23.45459343 8.758757 -21.5625 7.6875 C-20.27131894 6.9527646 -18.98030216 6.21774044 -17.68945312 5.48242188 C-5.71956061 -1.32703517 -5.71956061 -1.32703517 0 0 Z " fill="#368D5A" transform="translate(603,302)"/>
<path d="M0 0 C0.85754883 0.45246094 1.71509766 0.90492188 2.59863281 1.37109375 C3.58814941 1.88994141 4.57766602 2.40878906 5.59716797 2.94335938 C7.225979 3.85118164 7.225979 3.85118164 8.88769531 4.77734375 C9.47279877 5.10271118 10.05790222 5.42807861 10.66073608 5.76330566 C11.8901664 6.44773375 13.11880268 7.13358991 14.34667969 7.82080078 C16.22311881 8.87080613 18.10205216 9.91623045 19.98144531 10.9609375 C29.13835643 16.06424283 29.13835643 16.06424283 32.59863281 18.37109375 C32.88507964 21.00367128 32.97707025 23.40021217 32.93920898 26.03369141 C32.93964706 26.82402267 32.94008514 27.61435394 32.9405365 28.42863464 C32.93844213 31.04772425 32.91508108 33.66617812 32.89160156 36.28515625 C32.8860079 38.09833425 32.88173672 39.91151678 32.8787384 41.72470093 C32.8672715 46.50224273 32.83778857 51.27951189 32.80462646 56.0569458 C32.77396525 60.92985343 32.76024153 65.80280501 32.74511719 70.67578125 C32.71292054 80.24100535 32.66170202 89.8060269 32.59863281 99.37109375 C28.88009494 97.92138912 25.519454 96.27126428 22.07128906 94.25390625 C21.03166016 93.64675781 19.99203125 93.03960937 18.92089844 92.4140625 C17.84517578 91.78113281 16.76945313 91.14820313 15.66113281 90.49609375 C14.58927734 89.87089844 13.51742187 89.24570312 12.41308594 88.6015625 C9.46409235 86.8741644 6.51794041 85.14824036 3.59863281 83.37109375 C2.50397705 82.92008301 1.40932129 82.46907227 0.28149414 82.00439453 C-2.95859118 78.82416337 -2.85823813 77.82703741 -3.08251953 73.40917969 C-3.0815693 70.8910762 -3.04765352 68.37284916 -2.98730469 65.85546875 C-2.97610834 64.51599021 -2.96757021 63.17648703 -2.96157837 61.8369751 C-2.93871287 58.31819334 -2.87981456 54.80090723 -2.81335449 51.28271484 C-2.75187961 47.68998448 -2.72455258 44.09701142 -2.69433594 40.50390625 C-2.63006527 33.459025 -2.52771682 26.41515722 -2.40136719 19.37109375 C-6.82707329 21.54761702 -11.19899619 23.75262355 -15.44824219 26.26171875 C-16.36275146 26.79901611 -17.27726074 27.33631348 -18.21948242 27.88989258 C-19.18700439 28.46118896 -20.15452637 29.03248535 -21.15136719 29.62109375 C-31.90805358 35.93980777 -42.7248018 42.14597254 -53.57421875 48.30371094 C-54.71213867 48.95114258 -55.85005859 49.59857422 -57.02246094 50.265625 C-58.03751709 50.84159424 -59.05257324 51.41756348 -60.09838867 52.01098633 C-62.289111 53.17574662 -62.289111 53.17574662 -63.40136719 54.37109375 C-63.50920448 55.86349895 -63.54818865 57.36094025 -63.55958557 58.85719299 C-63.5742688 60.31069656 -63.5742688 60.31069656 -63.58924866 61.79356384 C-63.59500412 62.8653035 -63.60075958 63.93704315 -63.60668945 65.04125977 C-63.61658905 66.16306641 -63.62648865 67.28487305 -63.63668823 68.44067383 C-63.66841277 72.16876069 -63.6931038 75.89686031 -63.71777344 79.625 C-63.73833351 82.20190268 -63.75932972 84.77880192 -63.78074646 87.35569763 C-63.83040311 93.45781301 -63.87564296 99.55994666 -63.91876882 105.66211122 C-63.96809941 112.60762017 -64.02303298 119.55308121 -64.07844841 126.49854386 C-64.19234367 140.78934911 -64.29896745 155.08020182 -64.40136719 169.37109375 C-69.68136719 169.37109375 -74.96136719 169.37109375 -80.40136719 169.37109375 C-80.73136719 163.76109375 -81.06136719 158.15109375 -81.40136719 152.37109375 C-83.2434375 153.44230469 -85.08550781 154.51351562 -86.98339844 155.6171875 C-88.7702063 156.65373864 -90.55756068 157.68934117 -92.3449707 158.72485352 C-93.58610566 159.44456587 -94.82667082 160.16526177 -96.06665039 160.88696289 C-97.84990641 161.9246365 -99.63518716 162.95874624 -101.42089844 163.9921875 C-102.4944458 164.61536865 -103.56799316 165.2385498 -104.67407227 165.88061523 C-107.40136719 167.37109375 -107.40136719 167.37109375 -110.40136719 168.37109375 C-110.40136719 218.20109375 -110.40136719 268.03109375 -110.40136719 319.37109375 C-115.68136719 319.37109375 -120.96136719 319.37109375 -126.40136719 319.37109375 C-126.91164948 298.73537689 -127.30373309 278.10118932 -127.54123497 257.46042347 C-127.65447009 247.87515233 -127.80867436 238.29388271 -128.06103516 228.71118164 C-128.28101782 220.35393261 -128.42239917 211.99958069 -128.47131407 203.63951701 C-128.499899 199.21500399 -128.56648608 194.79877379 -128.72742844 190.37693214 C-129.66811961 163.51474444 -129.66811961 163.51474444 -124.24453735 156.6353035 C-119.05612484 152.21975852 -113.35234297 149.57799144 -106.96953964 147.31803703 C-103.5979446 146.07485367 -100.77297853 144.4104875 -97.72949219 142.51171875 C-96.03776568 141.54645429 -94.34512869 140.5827829 -92.65136719 139.62109375 C-91.76578125 139.11578125 -90.88019531 138.61046875 -89.96777344 138.08984375 C-83.71695785 134.52888908 -83.71695785 134.52888908 -81.40136719 133.37109375 C-81.40882462 132.28194672 -81.41628204 131.19279968 -81.42396545 130.07064819 C-81.48841677 119.80041632 -81.50555934 109.53104661 -81.47652531 99.2606411 C-81.46311519 93.98048162 -81.4663037 88.70142445 -81.50756836 83.42138672 C-81.54678883 78.32447425 -81.54222157 73.22929976 -81.50744438 68.13237381 C-81.50185054 66.18913543 -81.51196779 64.24578556 -81.53813362 62.3027153 C-81.72840636 47.05177476 -81.72840636 47.05177476 -78.43333435 42.87860107 C-76.11543984 41.30697682 -74.02992824 40.30729407 -71.40136719 39.37109375 C-69.86802734 38.4584375 -69.86802734 38.4584375 -68.30371094 37.52734375 C-67.3253125 36.98078125 -66.34691406 36.43421875 -65.33886719 35.87109375 C-58.79974174 32.18723554 -52.31638628 28.41211024 -45.83886719 24.62109375 C-37.09943881 19.51055794 -28.33424244 14.44882345 -19.52807617 9.45410156 C-18.73602783 9.00389648 -17.94397949 8.55369141 -17.12792969 8.08984375 C-16.35610352 7.65542969 -15.58427734 7.22101563 -14.7890625 6.7734375 C-13.08266598 5.77123488 -11.40748357 4.71510855 -9.75585938 3.625 C-8.88348633 3.05652344 -8.01111328 2.48804688 -7.11230469 1.90234375 C-5.93740479 1.10666992 -5.93740479 1.10666992 -4.73876953 0.29492188 C-2.40136719 -0.62890625 -2.40136719 -0.62890625 0 0 Z " fill="#38804E" transform="translate(595.4013671875,200.62890625)"/>
<path d="M0 0 C7.59 0 15.18 0 23 0 C23 7.59 23 15.18 23 23 C27.29 23 31.58 23 36 23 C36 27.95 36 32.9 36 38 C31.71 38 27.42 38 23 38 C23.11342562 42.29226439 23.24018537 46.58340085 23.375 50.875 C23.4059375 52.09832031 23.436875 53.32164062 23.46875 54.58203125 C23.50742187 55.74863281 23.54609375 56.91523437 23.5859375 58.1171875 C23.6173584 59.19597168 23.6487793 60.27475586 23.68115234 61.38623047 C23.74676322 64.15761654 23.74676322 64.15761654 26 66 C28.22128555 66.02308597 28.22128555 66.02308597 30.625 65.625 C31.44226563 65.51414062 32.25953125 65.40328125 33.1015625 65.2890625 C33.72804688 65.19367188 34.35453125 65.09828125 35 65 C35.8680908 66.91040052 36.71901783 68.82860737 37.5625 70.75 C38.03816406 71.81734375 38.51382813 72.8846875 39.00390625 73.984375 C39.9946154 76.98369837 40.16161779 78.13421241 39 81 C30.82052802 84.04352446 21.75134756 84.33512469 13.5 81.375 C7.69288064 78.68320723 5.19404403 75.45730801 2.3828125 69.671875 C0.18329996 63.63171252 0.68198919 57.33814039 0.8125 51 C0.83280273 49.12248047 0.83280273 49.12248047 0.85351562 47.20703125 C0.88866214 44.13756884 0.93786774 41.06901491 1 38 C-1.64 38 -4.28 38 -7 38 C-7.495 32.555 -7.495 32.555 -8 27 C-20.22858894 37.14146962 -20.22858894 37.14146962 -27 50 C-25.2783915 52.67318553 -25.2783915 52.67318553 -22.75 55.375 C-21.82480076 56.43313112 -20.90170648 57.49310559 -19.98046875 58.5546875 C-19.49368652 59.11124023 -19.0069043 59.66779297 -18.50537109 60.24121094 C-15.92862326 63.251735 -13.49819629 66.37509553 -11.0625 69.5 C-10.60262695 70.08700684 -10.14275391 70.67401367 -9.66894531 71.27880859 C-8.44133636 72.84893224 -7.22038823 74.42425746 -6 76 C-5.40058594 76.7528125 -4.80117188 77.505625 -4.18359375 78.28125 C-3 80 -3 80 -3 82 C-23.93954358 84.54554358 -23.93954358 84.54554358 -30.42773438 80.47802734 C-34.87811228 76.29074158 -38.00969529 71.28527265 -41 66 C-41.66 65.01 -42.32 64.02 -43 63 C-45.46800047 64.15173355 -47.04783565 65.04783565 -49 67 C-49.30690654 69.57685678 -49.51014493 72.04103303 -49.625 74.625 C-49.74875 77.05875 -49.8725 79.4925 -50 82 C-56.93 82 -63.86 82 -71 82 C-71 55.27 -71 28.54 -71 1 C-64.07 1 -57.14 1 -50 1 C-49.505 21.295 -49.505 21.295 -49 42 C-45.225625 37.2975 -45.225625 37.2975 -41.375 32.5 C-35.74446411 26.23473227 -30.65555447 22.27630557 -22.05859375 21.73828125 C-14.67426126 21.4910287 -7.33090109 22.16926171 0 23 C0 15.41 0 7.82 0 0 Z " fill="#0E0E0E" transform="translate(745,534)"/>
<path d="M0 0 C3.38363606 1.28436252 6.48202414 2.74761872 9.609375 4.56640625 C10.44597656 5.05173828 11.28257812 5.53707031 12.14453125 6.03710938 C13.00433594 6.54048828 13.86414063 7.04386719 14.75 7.5625 C16.06291016 8.32336914 16.06291016 8.32336914 17.40234375 9.09960938 C23.85776612 12.85776612 23.85776612 12.85776612 25 14 C25.09492722 16.34253782 25.12559791 18.65546104 25.11352539 20.99829102 C25.11367142 21.72995483 25.11381744 22.46161865 25.1139679 23.2154541 C25.11326867 25.64496784 25.10547585 28.07440583 25.09765625 30.50390625 C25.0957921 32.18399514 25.09436819 33.86408457 25.09336853 35.54417419 C25.08954307 39.97473643 25.07971256 44.4052661 25.06866455 48.83581543 C25.05845103 53.35342976 25.05387104 57.87104934 25.04882812 62.38867188 C25.03809031 71.25912893 25.02101356 80.12956176 25 89 C23.25263668 88.04905413 21.50553607 87.09762552 19.75854492 86.14599609 C18.78559982 85.61622162 17.81265472 85.08644714 16.81022644 84.5406189 C13.2871961 82.60922752 9.79447263 80.62918133 6.3125 78.625 C5.69439453 78.27050781 5.07628906 77.91601562 4.43945312 77.55078125 C2.95904256 76.70155349 1.47942681 75.85094038 0 75 C-0.06869276 80.11177653 0.30989586 83.85288624 3.95922852 87.62939453 C5.2482182 88.8165649 6.55598591 89.98357377 7.87890625 91.1328125 C9.28933909 92.44692174 10.6988149 93.76205878 12.10742188 95.078125 C14.32838138 97.10720419 16.55944296 99.12228927 18.81030273 101.11816406 C32.08459505 112.98309428 32.08459505 112.98309428 32.96435547 119.33496094 C33.11370844 122.96658534 32.71098079 126.43262269 32 130 C33.65 130 35.3 130 37 130 C37 135.94 37 141.88 37 148 C31.06 148 25.12 148 19 148 C19 142.06 19 136.12 19 130 C20.98 130 22.96 130 25 130 C25.07586891 124.10390171 24.91812964 119.34581786 20.9375 114.75 C17.77896505 111.57854671 14.40704871 108.63568991 11 105.734375 C8.93537889 103.94396138 6.95582186 102.09600358 5 100.1875 C4.4225 99.62417969 3.845 99.06085938 3.25 98.48046875 C2 97 2 97 2 95 C1.34 95 0.68 95 0 95 C0 116.12 0 137.24 0 159 C1.98 159 3.96 159 6 159 C4.65072455 163.53847198 2.80840652 167.31932246 0.375 171.375 C-0.25664063 172.43460938 -0.88828125 173.49421875 -1.5390625 174.5859375 C-2.02117188 175.38257813 -2.50328125 176.17921875 -3 177 C-5.95814719 174.38772848 -7.71876108 171.33429693 -9.6875 167.9375 C-10.31011719 166.87402344 -10.93273437 165.81054688 -11.57421875 164.71484375 C-13 162 -13 162 -13 160 C-11.02 160 -9.04 160 -7 160 C-7 127 -7 94 -7 60 C-9.64 62.31 -12.28 64.62 -15 67 C-16.340625 68.08796875 -17.68125 69.1759375 -19.0625 70.296875 C-27.33613191 77.2653716 -27.33613191 77.2653716 -31.140625 87.05859375 C-31.39489056 91.72542628 -31.55782567 96.54054859 -30 101 C-27.62350696 103.4542895 -27.62350696 103.4542895 -25 105 C-23.38570077 108.22859847 -23.40429343 111.50993653 -24 115 C-25.73602105 118.02508145 -27.83580137 120.41790069 -31 122 C-38.08958838 122.5811138 -38.08958838 122.5811138 -41.9375 120.125 C-45.49798678 116.45661968 -45.38800531 113.43416693 -45.359375 108.48828125 C-45 106 -45 106 -42.625 102.875 C-40 101 -40 101 -38 101 C-38.13615723 100.46971191 -38.27231445 99.93942383 -38.41259766 99.39306641 C-39.93800314 92.4225426 -40.44989266 85.79879704 -38 79 C-32.50996825 70.46330228 -24.04077423 63.54855859 -16.41690063 56.96858215 C-14.07514719 54.942894 -11.97837155 52.9725784 -10.05761719 50.53735352 C-8.19609621 48.24181631 -6.65621374 47.00546726 -4.30639648 45.29833984 C-1.38783542 42.84926377 -0.49099724 41.25981956 -0.11352539 37.46337891 C-0.07304982 35.71823474 -0.06962874 33.97195096 -0.09765625 32.2265625 C-0.08536484 31.3028183 -0.07307343 30.3790741 -0.06040955 29.42733765 C-0.02875152 26.49241026 -0.04493521 23.56000443 -0.0625 20.625 C-0.04938682 18.62888297 -0.03314488 16.63278387 -0.01367188 14.63671875 C0.02712077 9.75727647 0.02502811 4.87953066 0 0 Z " fill="#F7FCF9" transform="translate(609,325)"/>
<path d="M0 0 C6.40145781 4.30752301 10.34304922 10.02476772 13.27734375 17.09375 C15.09095292 27.79404413 14.12254951 35.66343286 7.90234375 44.78125 C1.31578911 52.73188401 -6.68958497 56.14044287 -16.84765625 57.15625 C-27.65630251 57.50491601 -35.87566915 55.25883968 -44.34375 48.484375 C-50.56873999 42.43961858 -53.36087082 34.73972167 -53.59765625 26.15625 C-53.45345951 17.62160548 -50.77569028 11.12730303 -45.26953125 4.62109375 C-33.61298959 -6.5379126 -13.8426213 -8.04264031 0 0 Z " fill="#0E0F0E" transform="translate(515.09765625,560.21875)"/>
<path d="M0 0 C2.27208851 1.70313672 4.30466186 3.36716186 6.3125 5.375 C6.11387744 8.06192185 5.47001074 9.20387267 3.640625 11.19140625 C0.01089451 14.2411986 -3.47737894 17.13837319 -7.6875 19.375 C-8.20699219 18.96507812 -8.72648437 18.55515625 -9.26171875 18.1328125 C-9.95910156 17.59398437 -10.65648437 17.05515625 -11.375 16.5 C-12.40173828 15.69949219 -12.40173828 15.69949219 -13.44921875 14.8828125 C-19.19096566 11.01489922 -24.91648075 10.40095673 -31.6875 11.375 C-34.06932111 12.47755267 -36.0313542 13.71135657 -38.12890625 15.28125 C-39.6875 16.375 -39.6875 16.375 -41.6875 16.375 C-41.996875 17.15875 -42.30625 17.9425 -42.625 18.75 C-43.6875 21.375 -43.6875 21.375 -44.6875 23.375 C-45.60937615 36.04095918 -45.60937615 36.04095918 -40.6875 47.375 C-34.97688402 52.94285058 -29.50104818 52.64847841 -21.828125 52.60546875 C-18.16901699 52.33695212 -15.74534666 51.38674123 -12.6875 49.375 C-11.6975 49.045 -10.7075 48.715 -9.6875 48.375 C-9.6875 47.715 -9.6875 47.055 -9.6875 46.375 C-7.87597656 45.73071289 -7.87597656 45.73071289 -5.6875 45.375 C-3.40482735 47.12248644 -1.46520249 48.80662684 0.5625 50.8125 C1.11679687 51.34166016 1.67109375 51.87082031 2.2421875 52.41601562 C3.60967954 53.72456405 4.96253189 55.0483804 6.3125 56.375 C3.35438903 62.89405972 -1.80588142 66.27415937 -8.1875 69.25 C-14.56123354 71.53743747 -20.63086415 71.87381498 -27.375 71.9375 C-28.33664062 71.95216309 -29.29828125 71.96682617 -30.2890625 71.98193359 C-41.23452311 71.82615972 -49.75462045 67.82063935 -57.6875 60.375 C-66.02636081 51.44183285 -69.04155911 40.71662746 -68.89453125 28.75390625 C-68.21637185 17.68583298 -62.89383899 9.1104027 -54.9375 1.5625 C-39.490809 -11.17424521 -16.22410346 -11.1178048 0 0 Z " fill="#0F0F0F" transform="translate(456.6875,545.625)"/>
<path d="M0 0 C6.71461346 4.48831432 10.24524723 9.42442989 13 17 C13 21.95 13 26.9 13 32 C-0.86 32 -14.72 32 -29 32 C-25.96499067 37.37769564 -25.96499067 37.37769564 -21 40 C-14.69685883 40.89113375 -10.13124335 40.15778822 -4.7890625 36.6796875 C-3 36 -3 36 -1.0390625 36.625 C1.35472554 38.23920189 3.24264305 40.05073115 5.25 42.125 C5.95640625 42.84945312 6.6628125 43.57390625 7.390625 44.3203125 C7.92171875 44.87460937 8.4528125 45.42890625 9 46 C7.64098489 49.22594495 6.34827128 50.78891614 3.375 52.625 C2.74335937 53.02976562 2.11171875 53.43453125 1.4609375 53.8515625 C-7.65142068 58.10399632 -19.34802999 58.56169347 -29.078125 56.27734375 C-31.5284033 55.34909415 -33.72892784 54.30265271 -36 53 C-36.64195312 52.649375 -37.28390625 52.29875 -37.9453125 51.9375 C-44.77987865 47.67699123 -48.92425914 40.65193563 -51 33 C-51.97741392 23.74028922 -51.74193854 15.606727 -46 8 C-34.72954329 -4.75691458 -15.06845261 -9.26654841 0 0 Z " fill="#376336" transform="translate(655,560)"/>
<path d="M0 0 C6.05934189 5.15218514 9.35964594 11.36609814 10.2624054 19.30867004 C10.34329617 21.68159765 10.33853622 24.03633563 10.29296875 26.41015625 C10.28872391 27.26306747 10.28447906 28.1159787 10.28010559 28.99473572 C10.2634863 31.6843295 10.22586775 34.37313769 10.1875 37.0625 C10.17243143 38.9003797 10.15874686 40.73827131 10.14648438 42.57617188 C10.11620599 47.05131784 10.05745629 51.52479317 10 56 C3.4 56 -3.2 56 -10 56 C-10.33 54.35 -10.66 52.7 -11 51 C-11.556875 51.61875 -12.11375 52.2375 -12.6875 52.875 C-18.08421385 57.83414246 -24.34161143 57.5007051 -31.32421875 57.30859375 C-36.97123857 56.83450813 -40.73287442 55.51268326 -44.55078125 51.28125 C-48.68539188 45.78396488 -49.78383962 40.81599666 -49 34 C-47.31748484 28.59880483 -43.90266153 25.82308458 -39.1953125 22.9453125 C-33.30245431 20.4078184 -26.91446187 20.87918117 -20.625 20.9375 C-19.69816406 20.94201172 -18.77132812 20.94652344 -17.81640625 20.95117188 C-15.54420291 20.96288426 -13.27213612 20.97928628 -11 21 C-12.736759 16.83023532 -12.736759 16.83023532 -15.80078125 13.64453125 C-23.93777832 11.25979854 -32.34784005 12.88725697 -40 16 C-41.03290841 14.06891037 -42.05098672 12.129882 -43.0625 10.1875 C-43.91521484 8.56908203 -43.91521484 8.56908203 -44.78515625 6.91796875 C-46 4 -46 4 -45 1 C-43.109375 -0.1328125 -43.109375 -0.1328125 -40.75 -1.125 C-39.98171875 -1.45757813 -39.2134375 -1.79015625 -38.421875 -2.1328125 C-27.77341715 -5.94564741 -9.47927638 -6.7709117 0 0 Z " fill="#101010" transform="translate(833,560)"/>
<path d="M0 0 C6.47305086 3.84303849 9.47491701 8.26846823 11.75967407 15.38864136 C12.76225631 19.43979362 12.74557864 23.35120922 12.66796875 27.50390625 C12.66372391 28.37901352 12.65947906 29.25412079 12.65510559 30.15574646 C12.63847981 32.91666072 12.60085966 35.67681105 12.5625 38.4375 C12.54743228 40.32355707 12.53374756 42.20962573 12.52148438 44.09570312 C12.49119676 48.68932423 12.4324476 53.28131973 12.375 57.875 C5.445 57.875 -1.485 57.875 -8.625 57.875 C-8.65078125 55.33425781 -8.6765625 52.79351563 -8.703125 50.17578125 C-8.74157188 47.7066759 -8.78672339 45.23777752 -8.83251953 42.76879883 C-8.86069086 41.0569858 -8.88192452 39.34504363 -8.89599609 37.63305664 C-8.91747965 35.16746081 -8.96415416 32.70341139 -9.015625 30.23828125 C-9.01685364 29.47663162 -9.01808228 28.71498199 -9.01934814 27.93025208 C-9.15465299 22.98723731 -10.03167734 20.30965323 -13.625 16.875 C-16.01928888 16.09195008 -16.01928888 16.09195008 -18.5625 16.25 C-19.39652344 16.23710938 -20.23054687 16.22421875 -21.08984375 16.2109375 C-24.81661782 17.1871341 -26.22942363 18.88151013 -28.625 21.875 C-29.131552 24.84960988 -29.34736858 27.26784604 -29.33203125 30.23828125 C-29.34715256 31.03026413 -29.36227386 31.82224701 -29.37785339 32.63822937 C-29.4206638 35.15494403 -29.42956132 37.67045782 -29.4375 40.1875 C-29.46064969 41.89912032 -29.48601603 43.61071219 -29.51367188 45.32226562 C-29.58061397 49.50716072 -29.60163675 53.68873002 -29.625 57.875 C-36.885 57.875 -44.145 57.875 -51.625 57.875 C-51.625 38.405 -51.625 18.935 -51.625 -1.125 C-45.025 -1.125 -38.425 -1.125 -31.625 -1.125 C-31.625 0.525 -31.625 2.175 -31.625 3.875 C-31.08230469 3.52566406 -30.53960938 3.17632813 -29.98046875 2.81640625 C-29.26503906 2.36136719 -28.54960938 1.90632812 -27.8125 1.4375 C-27.10480469 0.98503906 -26.39710938 0.53257812 -25.66796875 0.06640625 C-18.50958284 -4.10817827 -7.32892753 -3.44890707 0 0 Z " fill="#101010" transform="translate(585.625,558.125)"/>
<path d="M0 0 C7.59 0 15.18 0 23 0 C23 7.59 23 15.18 23 23 C27.29 23 31.58 23 36 23 C36 27.95 36 32.9 36 38 C31.71 38 27.42 38 23 38 C23.11342562 42.29226439 23.24018537 46.58340085 23.375 50.875 C23.4059375 52.09832031 23.436875 53.32164062 23.46875 54.58203125 C23.52675781 56.33193359 23.52675781 56.33193359 23.5859375 58.1171875 C23.6173584 59.19597168 23.6487793 60.27475586 23.68115234 61.38623047 C23.74676322 64.15761654 23.74676322 64.15761654 26 66 C28.22128555 66.02308597 28.22128555 66.02308597 30.625 65.625 C31.44226563 65.51414062 32.25953125 65.40328125 33.1015625 65.2890625 C33.72804688 65.19367188 34.35453125 65.09828125 35 65 C35.8680908 66.91040052 36.71901783 68.82860737 37.5625 70.75 C38.03816406 71.81734375 38.51382813 72.8846875 39.00390625 73.984375 C39.9946154 76.98369837 40.16161779 78.13421241 39 81 C30.82052802 84.04352446 21.75134756 84.33512469 13.5 81.375 C7.69288064 78.68320723 5.19404403 75.45730801 2.3828125 69.671875 C0.18329996 63.63171252 0.68198919 57.33814039 0.8125 51 C0.83280273 49.12248047 0.83280273 49.12248047 0.85351562 47.20703125 C0.88866214 44.13756884 0.93786774 41.06901491 1 38 C-1.64 38 -4.28 38 -7 38 C-7 34.04 -7 30.08 -7 26 C-5.68 26.66 -4.36 27.32 -3 28 C-2.67 27.01 -2.34 26.02 -2 25 C-8.93 24.505 -8.93 24.505 -16 24 C-16 23.67 -16 23.34 -16 23 C-10.72 23 -5.44 23 0 23 C0 15.41 0 7.82 0 0 Z " fill="#101110" transform="translate(745,534)"/>
<path d="M0 0 C3.56986793 1.36718346 4.68082803 2.526745 6.8125 5.6875 C8.70026658 10.9533752 8.73405132 14.99101744 6.8125 20.25 C4.73298015 23.40513357 3.30563525 25.13159747 0 27 C-3.8324023 27.75797975 -7.31447984 27.87132822 -10.84375 26.046875 C-14.13174864 23.50028782 -16.08487155 21.02656517 -17 17 C-17.57512978 12.15632888 -17.49636937 8.94139018 -15.1875 4.5625 C-10.64679152 -0.75661565 -6.57652101 -0.66291332 0 0 Z " fill="#F7F7F7" transform="translate(500,573)"/>
<path d="M0 0 C7.59 0 15.18 0 23 0 C23 7.59 23 15.18 23 23 C15.41 23 7.82 23 0 23 C0 15.41 0 7.82 0 0 Z " fill="#379361" transform="translate(745,534)"/>
<path d="M0 0 C1.32 0.66 2.64 1.32 4 2 C4 25.1 4 48.2 4 72 C-3.92 72 -11.84 72 -20 72 C-20 50.22 -20 28.44 -20 6 C-20.99 5.67 -21.98 5.34 -23 5 C-22.34 4.67 -21.68 4.34 -21 4 C-19.52128601 5.11726379 -19.52128601 5.11726379 -18 7 C-17.63923645 9.75248718 -17.63923645 9.75248718 -17.65942383 13.1237793 C-17.65965042 14.38486008 -17.65987701 15.64594086 -17.66011047 16.94523621 C-17.67543037 18.32156732 -17.69107836 19.69789482 -17.70703125 21.07421875 C-17.7126274 22.48240202 -17.71689741 23.89059114 -17.71989441 25.29878235 C-17.73134182 29.00281944 -17.76080765 32.7065029 -17.79400635 36.41040039 C-17.82470974 40.19086931 -17.83840029 43.97139543 -17.85351562 47.75195312 C-17.88567784 55.16812986 -17.93687245 62.58401536 -18 70 C-16.515 69.505 -16.515 69.505 -15 69 C-9.72 69 -4.44 69 1 69 C1.33 47.22 1.66 25.44 2 3 C1.34 3 0.68 3 0 3 C0 2.01 0 1.02 0 0 Z " fill="#5B9B79" transform="translate(765,448)"/>
<path d="M0 0 C10.625 -0.25 10.625 -0.25 14 2 C14.66 1.34 15.32 0.68 16 0 C18.6015625 -0.1953125 18.6015625 -0.1953125 21.625 -0.125 C23.12933594 -0.09792969 23.12933594 -0.09792969 24.6640625 -0.0703125 C25.43492187 -0.04710937 26.20578125 -0.02390625 27 0 C26.85962479 1.81293089 26.71255111 3.6253443 26.5625 5.4375 C26.48128906 6.44683594 26.40007813 7.45617187 26.31640625 8.49609375 C26 11 26 11 25 12 C20.77509324 12.44562911 17.15544948 12.67636067 13.4375 10.5 C12.963125 10.005 12.48875 9.51 12 9 C11.62875 9.495 11.2575 9.99 10.875 10.5 C8.22454058 12.62036754 6.30439359 12.28122499 3 12 C2.34 11.67 1.68 11.34 1 11 C0.67 12.65 0.34 14.3 0 16 C-0.66 16 -1.32 16 -2 16 C-1.34 10.72 -0.68 5.44 0 0 Z " fill="#302E2E" transform="translate(754,648)"/>
<path d="M0 0 C5.28 0 10.56 0 16 0 C16 5.61 16 11.22 16 17 C10.72 17 5.44 17 0 17 C0 11.39 0 5.78 0 0 Z " fill="#30955F" transform="translate(675,490)"/>
<path d="M0 0 C0.33 0 0.66 0 1 0 C1.17303255 29.52132659 1.33584412 59.04269555 1.48431293 88.56415605 C1.5018354 92.04651458 1.51944536 95.52887266 1.53710938 99.01123047 C1.54062461 99.70452847 1.54413985 100.39782648 1.5477616 101.11213352 C1.60494806 112.34964042 1.66922734 123.58709618 1.736111 134.82454906 C1.80454197 146.34839304 1.86523944 157.87225586 1.91914403 169.39617741 C1.94968178 175.87185635 1.98379127 182.34747321 2.02626419 188.82308578 C2.06608784 194.91158735 2.0966013 201.00006288 2.11981392 207.08864975 C2.1300268 209.32928318 2.14371136 211.56990374 2.16103554 213.81049347 C2.18408929 216.85766323 2.19492074 219.90463227 2.20254517 222.95187378 C2.2122618 223.8487481 2.22197843 224.74562242 2.2319895 225.66967475 C2.22824242 231.77175758 2.22824242 231.77175758 0 234 C-0.6425235 236.06874034 -0.6425235 236.06874034 -1 238 C-1.66 238 -2.32 238 -3 238 C-3 236.35 -3 234.7 -3 233 C-9.27 233 -15.54 233 -22 233 C-22 232.67 -22 232.34 -22 232 C-21.39937744 232.00523682 -20.79875488 232.01047363 -20.17993164 232.01586914 C-17.47413162 232.03658014 -14.76834823 232.04964125 -12.0625 232.0625 C-11.11697266 232.07087891 -10.17144531 232.07925781 -9.19726562 232.08789062 C-8.29814453 232.09111328 -7.39902344 232.09433594 -6.47265625 232.09765625 C-5.64000244 232.10289307 -4.80734863 232.10812988 -3.94946289 232.11352539 C-1.99483202 232.21643292 -1.99483202 232.21643292 -1 231 C-0.88958568 228.02940371 -0.84502576 225.08156011 -0.84178162 222.11009216 C-0.83684364 221.16593714 -0.83190566 220.22178212 -0.82681805 219.24901634 C-0.81136147 216.0598116 -0.80306047 212.87062711 -0.79467773 209.68139648 C-0.78510561 207.40541401 -0.77509594 205.12943335 -0.76467896 202.85345459 C-0.73755163 196.6533098 -0.71658459 190.45315733 -0.69667697 184.25298572 C-0.67486552 177.78135946 -0.64745323 171.30975706 -0.62062073 164.83815002 C-0.57631596 153.96901441 -0.53549186 143.09987157 -0.49731445 132.23071289 C-0.45797507 121.03343755 -0.4165526 109.83617312 -0.37231445 98.63891602 C-0.36959018 97.94918276 -0.36686591 97.25944951 -0.36405908 96.54881524 C-0.35037986 93.08876528 -0.33665954 89.62871548 -0.32291877 86.16866577 C-0.20890596 57.44580003 -0.10218107 28.72291012 0 0 Z " fill="#CDE2D2" transform="translate(557,324)"/>
<path d="M0 0 C0.99 0 1.98 0 3 0 C2.4618629 5.69051363 1.8599867 11.34865884 1 17 C-0.6026782 17.10824843 -2.20745748 17.18570645 -3.8125 17.25 C-4.70582031 17.29640625 -5.59914063 17.3428125 -6.51953125 17.390625 C-9 17 -9 17 -10.82421875 15.109375 C-12 13 -12 13 -12 11 C-15.3 11 -18.6 11 -22 11 C-22 11.99 -22 12.98 -22 14 C-19.36 14 -16.72 14 -14 14 C-14.33 14.99 -14.66 15.98 -15 17 C-18.375 17.125 -18.375 17.125 -22 17 C-24 15 -24 15 -24.265625 13.125 C-24.26046875 12.42375 -24.2553125 11.7225 -24.25 11 C-24.25515625 10.29875 -24.2603125 9.5975 -24.265625 8.875 C-24 7 -24 7 -22 5 C-14.69565217 4.53623188 -14.69565217 4.53623188 -11 7 C-10.484375 6.484375 -9.96875 5.96875 -9.4375 5.4375 C-6.0289729 3.42734299 -3.76893143 4.20272604 0 5 C0 3.35 0 1.7 0 0 Z " fill="#2B2B2A" transform="translate(685,643)"/>
<path d="M0 0 C5.28 0 10.56 0 16 0 C16 5.28 16 10.56 16 16 C10.72 16 5.44 16 0 16 C0 10.72 0 5.44 0 0 Z " fill="#3B6A3E" transform="translate(469,528)"/>
<path d="M0 0 C5.28 0 10.56 0 16 0 C16 5.28 16 10.56 16 16 C10.72 16 5.44 16 0 16 C0 10.72 0 5.44 0 0 Z " fill="#417B4F" transform="translate(515,399)"/>
<path d="M0 0 C5.28 0 10.56 0 16 0 C16 5.28 16 10.56 16 16 C10.72 16 5.44 16 0 16 C0 10.72 0 5.44 0 0 Z " fill="#447F54" transform="translate(515,374)"/>
<path d="M0 0 C0.33 0 0.66 0 1 0 C1 59.73 1 119.46 1 181 C-3 179 -3 179 -5 176 C-3.68 176 -2.36 176 -1 176 C-1 150.59 -1 125.18 -1 99 C-1.66 99 -2.32 99 -3 99 C-3 93.06 -3 87.12 -3 81 C-2.34 81 -1.68 81 -1 81 C-0.67 54.27 -0.34 27.54 0 0 Z " fill="#51936F" transform="translate(649,374)"/>
<path d="M0 0 C0.99 0 1.98 0 3 0 C3 0.66 3 1.32 3 2 C3.99 2 4.98 2 6 2 C6 2.99 6 3.98 6 5 C4.68 5 3.36 5 2 5 C1.67 7.31 1.34 9.62 1 12 C1.99 12 2.98 12 4 12 C4 12.99 4 13.98 4 15 C0.95613276 15.08226668 -1.07175348 14.97608217 -4 14 C-4.99 14.495 -4.99 14.495 -6 15 C-10.05142119 15.25860135 -11.54337669 15.30441554 -15 13 C-15.65593302 6.98728063 -15.65593302 6.98728063 -13.86328125 4.2890625 C-11.16117428 2.41968032 -9.05625049 2.70786289 -5.8125 2.8125 C-4.72582031 2.83957031 -3.63914062 2.86664062 -2.51953125 2.89453125 C-1.27236328 2.94673828 -1.27236328 2.94673828 0 3 C0 2.01 0 1.02 0 0 Z " fill="#E8E8E8" transform="translate(797,645)"/>
<path d="M0 0 C0.33 0 0.66 0 1 0 C1.69400912 36.41148972 2.10933197 72.81666131 2.12338257 109.23511505 C2.1250029 112.00495249 2.12856439 114.77478176 2.13256836 117.5446167 C2.13839565 121.92105584 2.13866686 126.29746001 2.13431931 130.6739006 C2.13332282 132.29487464 2.1339095 133.91585049 2.13615799 135.53682327 C2.13869509 137.75635577 2.1349271 139.97578751 2.12939453 142.1953125 C2.12859894 143.44328613 2.12780334 144.69125977 2.12698364 145.97705078 C2 149 2 149 1 152 C2.32 151.67 3.64 151.34 5 151 C3.35 152.65 1.7 154.3 0 156 C0 104.52 0 53.04 0 0 Z " fill="#25552C" transform="translate(559,398)"/>
<path d="M0 0 C2.475 0.99 2.475 0.99 5 2 C5 28.73 5 55.46 5 83 C-0.625 80.75 -0.625 80.75 -3 78 C-1.68 78 -0.36 78 1 78 C0.979375 76.906875 0.95875 75.81375 0.9375 74.6875 C1 71 1 71 2 68 C2.08932308 65.89909979 2.11759269 63.79542123 2.11352539 61.69262695 C2.11344986 60.39150467 2.11337433 59.09038239 2.11329651 57.74983215 C2.10818985 56.3293148 2.10297385 54.90879783 2.09765625 53.48828125 C2.09579091 52.03525338 2.09436756 50.58222489 2.09336853 49.12919617 C2.08955246 45.30693828 2.07972993 41.48471845 2.06866455 37.66247559 C2.05843087 33.76131709 2.05386671 29.86015243 2.04882812 25.95898438 C2.03810686 18.30597224 2.02104135 10.65299146 2 3 C1.34 3 0.68 3 0 3 C0 2.01 0 1.02 0 0 Z " fill="#65A281" transform="translate(623,217)"/>
<path d="M0 0 C0 0.66 0 1.32 0 2 C-0.99 2 -1.98 2 -3 2 C-3 62.72 -3 123.44 -3 186 C-4.98 185.67 -6.96 185.34 -9 185 C-6 183 -6 183 -4 183 C-4 122.94 -4 62.88 -4 1 C-2 0 -2 0 0 0 Z " fill="#DBF5E7" transform="translate(654,372)"/>
<path d="M0 0 C1.0725 0.2475 2.145 0.495 3.25 0.75 C3.58 1.74 3.91 2.73 4.25 3.75 C4.971875 3.09 5.69375 2.43 6.4375 1.75 C9.46597933 -0.4035853 10.64703406 -0.66176754 14.25 -0.25 C14.91 1.07 15.57 2.39 16.25 3.75 C13.94 3.75 11.63 3.75 9.25 3.75 C8.92 5.73 8.59 7.71 8.25 9.75 C10.89 9.42 13.53 9.09 16.25 8.75 C15.92 9.74 15.59 10.73 15.25 11.75 C11.9375 12.4375 11.9375 12.4375 8.25 12.75 C6.3125 11.4375 6.3125 11.4375 5.25 9.75 C5.25 9.09 5.25 8.43 5.25 7.75 C2.94 8.08 0.63 8.41 -1.75 8.75 C-0.1 9.08 1.55 9.41 3.25 9.75 C3.25 10.41 3.25 11.07 3.25 11.75 C0.45129973 13.14935013 -1.65498792 13.00265405 -4.75 12.75 C-6.625 11.625 -6.625 11.625 -7.75 9.75 C-8.28852618 6.13418138 -8.17236225 4.40888511 -6.1875 1.3125 C-3.75 -0.25 -3.75 -0.25 0 0 Z " fill="#313130" transform="translate(564.75,647.25)"/>
<path d="M0 0 C3.4375 1.625 3.4375 1.625 6 4 C6.66 5.98 7.32 7.96 8 10 C0.08 10 -7.84 10 -16 10 C-15.04661295 5.23306474 -14.63123719 3.80642055 -10.875 0.953125 C-7.30572921 -0.86125432 -3.86775397 -0.74033931 0 0 Z " fill="#E9F1E8" transform="translate(641,571)"/>
<path d="M0 0 C0.70189453 0.01353516 1.40378906 0.02707031 2.12695312 0.04101562 C3.85579829 0.07629818 5.58424765 0.13010417 7.3125 0.1875 C7.546875 5.8984375 7.546875 5.8984375 5.4375 8.5 C2.41999008 10.89625788 0.67076919 11.36270652 -3.125 11.4375 C-3.90746094 11.46328125 -4.68992187 11.4890625 -5.49609375 11.515625 C-8.20864994 11.10946685 -9.05370852 10.35214487 -10.6875 8.1875 C-11.09895137 5.44449085 -11.14458786 3.90822654 -9.64453125 1.54296875 C-6.63283967 -0.54297332 -3.52055489 -0.12819948 0 0 Z " fill="#F4F4F4" transform="translate(814.6875,591.8125)"/>
<path d="M0 0 C0.99 0.33 1.98 0.66 3 1 C2.67 1.99 2.34 2.98 2 4 C2.61875 4.185625 3.2375 4.37125 3.875 4.5625 C7.05602866 6.71437233 7.19451947 9.37533763 8 13 C9.32 10.69 10.64 8.38 12 6 C12.99 6.33 13.98 6.66 15 7 C13.02 10.63 11.04 14.26 9 18 C7.68 18 6.36 18 5 18 C4.34 14.7 3.68 11.4 3 8 C2.34 8 1.68 8 1 8 C0.67 10.97 0.34 13.94 0 17 C-0.99 17.33 -1.98 17.66 -3 18 C-2.67 14.7 -2.34 11.4 -2 8 C-3.32 8.33 -4.64 8.66 -6 9 C-6.66 11.97 -7.32 14.94 -8 18 C-8.99 18 -9.98 18 -11 18 C-10.48041715 13.62065881 -9.94324258 9.31196609 -9 5 C-6.69 5 -4.38 5 -2 5 C-1.34 3.35 -0.68 1.7 0 0 Z " fill="#989898" transform="translate(471,642)"/>
<path d="M0 0 C0.99 0 1.98 0 3 0 C2.01 5.61 1.02 11.22 0 17 C-1.423125 17.061875 -2.84625 17.12375 -4.3125 17.1875 C-5.51326172 17.23970703 -5.51326172 17.23970703 -6.73828125 17.29296875 C-9 17 -9 17 -10.765625 15.671875 C-12.70147097 13.0499064 -12.45134843 11.15943904 -12 8 C-10.4375 5.5625 -10.4375 5.5625 -8 4 C-4.25 4.25 -4.25 4.25 -1 5 C-0.67 3.35 -0.34 1.7 0 0 Z " fill="#474645" transform="translate(618,643)"/>
<path d="M0 0 C0.66 0 1.32 0 2 0 C2.33 1.32 2.66 2.64 3 4 C3.763125 3.9175 4.52625 3.835 5.3125 3.75 C8 4 8 4 9.875 5.625 C11.40327808 8.85136483 11.00757726 10.6174192 10 14 C8.76953125 15.671875 8.76953125 15.671875 7 17 C4.51953125 17.29296875 4.51953125 17.29296875 1.8125 17.1875 C0.46091797 17.14689453 0.46091797 17.14689453 -0.91796875 17.10546875 C-1.60503906 17.07066406 -2.29210937 17.03585937 -3 17 C-2.88506243 15.10353002 -2.75760358 13.20781668 -2.625 11.3125 C-2.55539062 10.25675781 -2.48578125 9.20101562 -2.4140625 8.11328125 C-2.01239911 5.09322731 -1.25930981 2.75921946 0 0 Z " fill="#3B3B3A" transform="translate(521,643)"/>
<path d="M0 0 C0.99 0 1.98 0 3 0 C3 1.32 3 2.64 3 4 C5.31 4.33 7.62 4.66 10 5 C11.18090452 11.14070352 11.18090452 11.14070352 10.5 14.375 C8.08110141 16.99547348 5.44172926 16.76263936 2 17 C0.68 17 -0.64 17 -2 17 C-2.21824777 10.9981863 -1.5056904 5.80766296 0 0 Z " fill="#292928" transform="translate(696,643)"/>
<path d="M0 0 C0.99 0 1.98 0 3 0 C2.01 5.61 1.02 11.22 0 17 C-1.423125 17.061875 -2.84625 17.12375 -4.3125 17.1875 C-5.51326172 17.23970703 -5.51326172 17.23970703 -6.73828125 17.29296875 C-9 17 -9 17 -10.8046875 15.7109375 C-12 14 -12 14 -11.8125 10.4375 C-11 7 -11 7 -9 5 C-6.31160615 4.73008094 -3.70858064 4.91262643 -1 5 C-0.67 3.35 -0.34 1.7 0 0 Z " fill="#1B1B1A" transform="translate(457,643)"/>
<path d="M0 0 C0.99 0.33 1.98 0.66 3 1 C4.27536539 7.84460804 4.12622488 14.64638381 4.09765625 21.58984375 C4.0962413 22.88950577 4.09482635 24.18916779 4.09336853 25.5282135 C4.08957334 28.96243253 4.07976908 32.39660842 4.06866455 35.83081055 C4.05838555 39.34358131 4.05385708 42.85635912 4.04882812 46.36914062 C4.03814376 53.24611133 4.02110388 60.12305359 4 67 C3.67 67 3.34 67 3 67 C2.67 69.97 2.34 72.94 2 76 C1.67 76 1.34 76 1 76 C0.67 50.92 0.34 25.84 0 0 Z " fill="#48956C" transform="translate(633,338)"/>
<path d="M0 0 C8.49609375 -0.09765625 8.49609375 -0.09765625 11 0 C12 1 12 1 12.25 4.875 C12.20377533 7.45433662 12.15273457 8.72847187 10.875 11 C8.1715264 12.44185259 6.01217617 12.25635542 3 12 C2.34 11.67 1.68 11.34 1 11 C0.67 12.65 0.34 14.3 0 16 C-0.66 16 -1.32 16 -2 16 C-1.34 10.72 -0.68 5.44 0 0 Z " fill="#323231" transform="translate(754,648)"/>
<path d="M0 0 C0.66 0 1.32 0 2 0 C3.2890625 1.53125 3.2890625 1.53125 4.625 3.5 C5.07101562 4.1496875 5.51703125 4.799375 5.9765625 5.46875 C6.31429687 5.9740625 6.65203125 6.479375 7 7 C6.01 7.495 6.01 7.495 5 8 C4.01 7.01 3.02 6.02 2 5 C2.00222061 5.62116699 2.00444122 6.24233398 2.00672913 6.88232422 C2.02892366 13.37157616 2.04396557 19.86081724 2.05493164 26.35009766 C2.05994752 28.76904743 2.06676179 31.18799419 2.07543945 33.60693359 C2.08762545 37.09212998 2.09325589 40.57728613 2.09765625 44.0625 C2.10281754 45.13677246 2.10797882 46.21104492 2.11329651 47.31787109 C2.11371544 52.97781173 1.84963973 58.40237353 1 64 C0.67 64 0.34 64 0 64 C0 42.88 0 21.76 0 0 Z " fill="#488E67" transform="translate(609,420)"/>
<path d="M0 0 C2.234375 0.1484375 2.234375 0.1484375 4.234375 2.1484375 C4.2109375 4.75 4.2109375 4.75 3.859375 7.7734375 C3.69308594 9.27777344 3.69308594 9.27777344 3.5234375 10.8125 C3.38035156 11.96878906 3.38035156 11.96878906 3.234375 13.1484375 C2.574375 13.1484375 1.914375 13.1484375 1.234375 13.1484375 C1.234375 9.8484375 1.234375 6.5484375 1.234375 3.1484375 C-1.28249436 3.55155111 -1.28249436 3.55155111 -3.765625 5.1484375 C-4.84804403 7.81369038 -5.25834607 10.289229 -5.765625 13.1484375 C-6.425625 13.1484375 -7.085625 13.1484375 -7.765625 13.1484375 C-7.435625 9.8484375 -7.105625 6.5484375 -6.765625 3.1484375 C-8.415625 3.4784375 -10.065625 3.8084375 -11.765625 4.1484375 C-12.425625 7.1184375 -13.085625 10.0884375 -13.765625 13.1484375 C-14.755625 13.1484375 -15.745625 13.1484375 -16.765625 13.1484375 C-16.62467436 11.5230067 -16.47770413 9.89809699 -16.328125 8.2734375 C-16.24691406 7.36851562 -16.16570313 6.46359375 -16.08203125 5.53125 C-15.765625 3.1484375 -15.765625 3.1484375 -14.765625 1.1484375 C-12.21875 0.734375 -12.21875 0.734375 -9.015625 0.5234375 C-7.96890625 0.44867187 -6.9221875 0.37390625 -5.84375 0.296875 C-3.89558521 0.20292797 -1.94762543 0.10453357 0 0 Z " fill="#313130" transform="translate(746.765625,646.8515625)"/>
<path d="M0 0 C0.99 0.33 1.98 0.66 3 1 C2.34 1.66 1.68 2.32 1 3 C0.69958508 5.72356619 0.69958508 5.72356619 0.75708008 8.94677734 C0.75400345 10.19502289 0.75092682 11.44326843 0.74775696 12.7293396 C0.75465643 14.09820742 0.76192353 15.46707343 0.76953125 16.8359375 C0.77072332 18.23597166 0.77117615 19.63600662 0.7709198 21.03604126 C0.77248538 23.97329705 0.78077866 26.91043109 0.79418945 29.84765625 C0.81114808 33.60932395 0.81500467 37.37085738 0.81424427 41.13255882 C0.81451654 44.02535276 0.82000746 46.91811745 0.82724571 49.81090164 C0.83042452 51.19755456 0.83239795 52.58421079 0.83313942 53.97086716 C0.83531308 55.9120681 0.84486472 57.85325653 0.85473633 59.79443359 C0.85854813 60.89870697 0.86235992 62.00298035 0.86628723 63.14071655 C0.98211867 65.61762972 1.38205109 67.62189029 2 70 C1.5625 72.75 1.5625 72.75 1 75 C0.67 75 0.34 75 0 75 C-0.75202739 70.31134089 -1.12617145 65.81750652 -1.12939453 61.07080078 C-1.13114685 60.41789566 -1.13289917 59.76499054 -1.13470459 59.09230042 C-1.13906392 56.95994314 -1.13620828 54.82767044 -1.1328125 52.6953125 C-1.13348675 51.20555607 -1.13445779 49.71579975 -1.13571167 48.2260437 C-1.13718018 45.11780744 -1.13505955 42.00960007 -1.13037109 38.90136719 C-1.12464439 34.90975235 -1.12797661 30.91820432 -1.13394356 26.92659187 C-1.13754667 23.85722341 -1.13641226 20.78787097 -1.13381577 17.71850204 C-1.13314734 16.24563463 -1.13397198 14.77276578 -1.13629532 13.29990005 C-1.13882091 11.25087765 -1.13429233 9.20185014 -1.12939453 7.15283203 C-1.12859894 5.98591827 -1.12780334 4.81900452 -1.12698364 3.61672974 C-1 1 -1 1 0 0 Z " fill="#327245" transform="translate(559,323)"/>
<path d="M0 0 C1.32 0.33 2.64 0.66 4 1 C4.33 21.13 4.66 41.26 5 62 C4.01 61.67 3.02 61.34 2 61 C2 41.2 2 21.4 2 1 C1.34 0.67 0.68 0.34 0 0 Z " fill="#468A64" transform="translate(591,219)"/>
<path d="M0 0 C5.28 0 10.56 0 16 0 C16 5.61 16 11.22 16 17 C10.72 17 5.44 17 0 17 C0 11.39 0 5.78 0 0 Z M2 2 C2 6.29 2 10.58 2 15 C5.96 15 9.92 15 14 15 C14 10.71 14 6.42 14 2 C10.04 2 6.08 2 2 2 Z " fill="#60A07C" transform="translate(675,490)"/>
<path d="M0 0 C0.99 0 1.98 0 3 0 C2.4618629 5.69051363 1.8599867 11.34865884 1 17 C-0.65 17 -2.3 17 -4 17 C-2.68 16.67 -1.36 16.34 0 16 C0 14.68 0 13.36 0 12 C-0.5775 12.515625 -1.155 13.03125 -1.75 13.5625 C-4 15 -4 15 -6.25 14.6875 C-6.8275 14.460625 -7.405 14.23375 -8 14 C-8.6875 11.6875 -8.6875 11.6875 -9 9 C-7.5625 7.1875 -7.5625 7.1875 -6 6 C-6.33 5.34 -6.66 4.68 -7 4 C-4.69 4.33 -2.38 4.66 0 5 C0 3.35 0 1.7 0 0 Z " fill="#424141" transform="translate(685,643)"/>
<path d="M0 0 C1 1 1 1 1.0625 3.5625 C1.041875 4.366875 1.02125 5.17125 1 6 C-1.97 6 -4.94 6 -8 6 C-8 6.99 -8 7.98 -8 9 C-5.36 9 -2.72 9 0 9 C0 9.66 0 10.32 0 11 C-2.79870027 12.39935013 -4.90498792 12.25265405 -8 12 C-9.9375 10.9375 -9.9375 10.9375 -11 9 C-10.8776796 5.57502884 -10.56643057 3.00698767 -8.875 0 C-5.82349077 -1.62747159 -3.26296715 -0.72510381 0 0 Z " fill="#2B2A29" transform="translate(496,648)"/>
<path d="M0 0 C1 1 1 1 1.0625 3.5625 C1.041875 4.366875 1.02125 5.17125 1 6 C-1.97 6 -4.94 6 -8 6 C-7.01 7.485 -7.01 7.485 -6 9 C-2.91634129 9.2502157 -2.91634129 9.2502157 0 9 C-0.33 9.99 -0.66 10.98 -1 12 C-7.32597793 12.35807422 -7.32597793 12.35807422 -10 10.9375 C-11.63529445 7.76911701 -10.8403752 5.36150081 -10 2 C-7.59707155 -2.27187279 -4.2793235 -0.95096078 0 0 Z " fill="#161515" transform="translate(631,648)"/>
<path d="M0 0 C1.82137424 3.64274847 2.24995673 4.67425248 2.24291992 8.44555664 C2.24599655 9.31648453 2.24907318 10.18741241 2.25224304 11.08473206 C2.24505753 12.01712204 2.23787201 12.94951202 2.23046875 13.91015625 C2.23001053 14.87400742 2.22955231 15.83785858 2.2290802 16.83091736 C2.22606241 18.86588779 2.21819026 20.900856 2.20581055 22.93579102 C2.18754812 26.05428224 2.18530099 29.17247649 2.18554688 32.29101562 C2.18063164 34.26823174 2.1748033 36.24544584 2.16796875 38.22265625 C2.16685593 39.15707047 2.1657431 40.09148468 2.16459656 41.05421448 C2.15821671 41.9219902 2.15183685 42.78976593 2.14526367 43.68383789 C2.14145187 44.44676651 2.13764008 45.20969513 2.13371277 45.9957428 C2 48 2 48 1 51 C2.98 50.505 2.98 50.505 5 50 C2.525 52.475 2.525 52.475 0 55 C0 36.85 0 18.7 0 0 Z " fill="#2E6133" transform="translate(559,499)"/>
<path d="M0 0 C0.66 0 1.32 0 2 0 C2.33 1.32 2.66 2.64 3 4 C3.78375 3.95875 4.5675 3.9175 5.375 3.875 C8 4 8 4 10 6 C10.01171875 8.09375 10.01171875 8.09375 9.6875 10.5 C9.58824219 11.2940625 9.48898437 12.088125 9.38671875 12.90625 C9 15 9 15 8 17 C7.34 17 6.68 17 6 17 C6.33 13.7 6.66 10.4 7 7 C5.02 7.66 3.04 8.32 1 9 C0.67 11.64 0.34 14.28 0 17 C-0.99 17 -1.98 17 -3 17 C-2.88506243 15.10353002 -2.75760358 13.20781668 -2.625 11.3125 C-2.55539062 10.25675781 -2.48578125 9.20101562 -2.4140625 8.11328125 C-2.01239911 5.09322731 -1.25930981 2.75921946 0 0 Z " fill="#373636" transform="translate(585,643)"/>
<path d="M0 0 C0.33 0 0.66 0 1 0 C1.19326436 7.22625204 1.37075091 14.45276627 1.53710938 21.6796875 C1.5956201 24.13973831 1.65778431 26.59970498 1.72363281 29.05957031 C1.81748648 32.5890369 1.89833002 36.1185945 1.9765625 39.6484375 C2.00875885 40.75367767 2.0409552 41.85891785 2.0741272 42.99765015 C2.10438492 44.52901108 2.10438492 44.52901108 2.13525391 46.09130859 C2.15746002 46.99287689 2.17966614 47.89444519 2.20254517 48.82333374 C2 51 2 51 0 53 C-0.6425235 55.06874034 -0.6425235 55.06874034 -1 57 C-1.66 57 -2.32 57 -3 57 C-3 55.35 -3 53.7 -3 52 C-9.27 52 -15.54 52 -22 52 C-22 51.67 -22 51.34 -22 51 C-21.09906616 51.00785522 -21.09906616 51.00785522 -20.17993164 51.01586914 C-17.47413162 51.03658014 -14.76834823 51.04964125 -12.0625 51.0625 C-10.64420898 51.07506836 -10.64420898 51.07506836 -9.19726562 51.08789062 C-8.29814453 51.09111328 -7.39902344 51.09433594 -6.47265625 51.09765625 C-5.64000244 51.10289307 -4.80734863 51.10812988 -3.94946289 51.11352539 C-1.99483202 51.21643292 -1.99483202 51.21643292 -1 50 C-0.87736612 48.43551617 -0.82220478 46.86567228 -0.79467773 45.29663086 C-0.77473251 44.29566879 -0.75478729 43.29470673 -0.73423767 42.26341248 C-0.71752518 41.1748848 -0.70081268 40.08635712 -0.68359375 38.96484375 C-0.66281265 37.85645645 -0.64203156 36.74806915 -0.62062073 35.60609436 C-0.55500377 32.04996192 -0.49618404 28.49375297 -0.4375 24.9375 C-0.39432632 22.53319507 -0.35071242 20.12889801 -0.30664062 17.72460938 C-0.19931008 11.81648815 -0.09756669 5.90829009 0 0 Z " fill="#DBE3DB" transform="translate(557,505)"/>
<path d="M0 0 C2 2 2 2 2.1875 5.375 C2.04410663 8.14727178 1.83710258 10.38405444 1 13 C0.01 13 -0.98 13 -2 13 C-1.67 9.7 -1.34 6.4 -1 3 C-2.65 3.33 -4.3 3.66 -6 4 C-6.66 6.97 -7.32 9.94 -8 13 C-8.99 13 -9.98 13 -11 13 C-10.85831863 11.56208484 -10.71148957 10.1246763 -10.5625 8.6875 C-10.48128906 7.88699219 -10.40007813 7.08648438 -10.31640625 6.26171875 C-10 4 -10 4 -9 1 C-6.05440259 -0.15719898 -3.13561416 -0.24754849 0 0 Z " fill="#3B3B3B" transform="translate(657,647)"/>
<path d="M0 0 C3 1 3 1 4 3 C4.039992 4.99960012 4.04346799 7.00047242 4 9 C4.66 9 5.32 9 6 9 C6.28875 8.236875 6.5775 7.47375 6.875 6.6875 C8 4 8 4 10 1 C10.99 1.33 11.98 1.66 13 2 C11.52235475 4.31348499 10.04296381 6.62581979 8.5625 8.9375 C8.14162109 9.59685547 7.72074219 10.25621094 7.28710938 10.93554688 C4.11328125 15.88671875 4.11328125 15.88671875 3 17 C1.00041636 17.04080783 -1.00045254 17.04254356 -3 17 C-3 16.34 -3 15.68 -3 15 C-1.68 14.67 -0.36 14.34 1 14 C1.08333357 9.1666528 0.95261487 4.76307437 0 0 Z " fill="#3A3939" transform="translate(532,647)"/>
<path d="M0 0 C8.49609375 -0.09765625 8.49609375 -0.09765625 11 0 C11.33 0.33 11.66 0.66 12 1 C11.91036938 2.69141656 11.75422324 4.37959602 11.5625 6.0625 C11.46066406 6.98160156 11.35882813 7.90070312 11.25390625 8.84765625 C11.17011719 9.55792969 11.08632813 10.26820313 11 11 C10.01 11.33 9.02 11.66 8 12 C8.33 8.7 8.66 5.4 9 2 C7.35 2.33 5.7 2.66 4 3 C3.01 5.97 2.02 8.94 1 12 C0.34 12 -0.32 12 -1 12 C-0.67 8.04 -0.34 4.08 0 0 Z " fill="#1F1E1E" transform="translate(499,648)"/>
<path d="M0 0 C0 0.66 0 1.32 0 2 C-0.99 2.66 -1.98 3.32 -3 4 C-3.33802675 6.54579377 -3.4887947 8.86149086 -3.51171875 11.4140625 C-3.52966995 12.14370209 -3.54762115 12.87334167 -3.56611633 13.62509155 C-3.62035132 15.95833535 -3.65415562 18.29137314 -3.6875 20.625 C-3.72066162 22.20575792 -3.7551502 23.78648861 -3.79101562 25.3671875 C-3.87608467 29.24464326 -3.94283178 33.12203655 -4 37 C-4.99 37.495 -4.99 37.495 -6 38 C-6 26.12 -6 14.24 -6 2 C-2 0 -2 0 0 0 Z " fill="#D8F2E3" transform="translate(697,443)"/>
<path d="M0 0 C0.99 0.33 1.98 0.66 3 1 C4.1875 4.5625 4.1875 4.5625 5 8 C6.32 5.69 7.64 3.38 9 1 C9.99 1.33 10.98 1.66 12 2 C10.71173738 4.1271313 9.41957604 6.25171612 8.125 8.375 C7.76019531 8.97828125 7.39539063 9.5815625 7.01953125 10.203125 C5.49053678 12.70511595 4.08128646 14.91871354 2 17 C-0.625 17.125 -0.625 17.125 -3 17 C-3 16.34 -3 15.68 -3 15 C-1.68 14.67 -0.36 14.34 1 14 C0.67 9.38 0.34 4.76 0 0 Z " fill="#252424" transform="translate(708,647)"/>
<path d="M0 0 C0.99 0.33 1.98 0.66 3 1 C3.05399736 2.45792884 3.09279177 3.91642712 3.125 5.375 C3.14820313 6.18710937 3.17140625 6.99921875 3.1953125 7.8359375 C3 10 3 10 1 12 C0.67 11.34 0.34 10.68 0 10 C0.33 9.34 0.66 8.68 1 8 C-1.64 8.33 -4.28 8.66 -7 9 C-7.04254356 7.00045254 -7.04080783 4.99958364 -7 3 C-6.67 2.67 -6.34 2.34 -6 2 C-3.66055264 2.28730055 -1.3260857 2.61936779 1 3 C0.67 2.01 0.34 1.02 0 0 Z " fill="#ECEBEB" transform="translate(580,648)"/>
<path d="M0 0 C2.64 0 5.28 0 8 0 C8 0.66 8 1.32 8 2 C5.69 2 3.38 2 1 2 C1 2.99 1 3.98 1 5 C1.66 5.33 2.32 5.66 3 6 C2.01 6 1.02 6 0 6 C0.020625 7.0725 0.04125 8.145 0.0625 9.25 C0.0142016 12.14790424 -0.13155885 14.28612141 -1 17 C-1.99 17 -2.98 17 -4 17 C-4 12.71 -4 8.42 -4 4 C-3.34 4 -2.68 4 -2 4 C-1.34 2.68 -0.68 1.36 0 0 Z " fill="#494949" transform="translate(638,643)"/>
<path d="M0 0 C0.66 1.32 1.32 2.64 2 4 C-0.31 4 -2.62 4 -5 4 C-5.33 5.98 -5.66 7.96 -6 10 C-3.36 9.67 -0.72 9.34 2 9 C1.67 9.99 1.34 10.98 1 12 C-5.36 13.32 -5.36 13.32 -8 12 C-9.6073824 8.7852352 -8.84967583 6.39870334 -8 3 C-5.83408093 -0.35717456 -3.82960446 -0.31050847 0 0 Z " fill="#2F2E2E" transform="translate(579,647)"/>
<path d="M0 0 C0.99 0 1.98 0 3 0 C3 0.66 3 1.32 3 2 C3.99 2 4.98 2 6 2 C6 2.99 6 3.98 6 5 C4.68 5 3.36 5 2 5 C1.67 7.31 1.34 9.62 1 12 C1.99 12 2.98 12 4 12 C4 12.99 4 13.98 4 15 C2.33388095 15.042721 0.66617115 15.04063832 -1 15 C-2 14 -2 14 -2.09765625 11.49609375 C-2.08605469 10.48675781 -2.07445312 9.47742188 -2.0625 8.4375 C-2.05347656 7.42558594 -2.04445313 6.41367187 -2.03515625 5.37109375 C-2.02355469 4.58863281 -2.01195312 3.80617188 -2 3 C-1.34 3 -0.68 3 0 3 C0 2.01 0 1.02 0 0 Z " fill="#363635" transform="translate(797,645)"/>
<path d="M0 0 C-0.680625 0.556875 -1.36125 1.11375 -2.0625 1.6875 C-3.0215625 2.8321875 -3.0215625 2.8321875 -4 4 C-3.85974801 6.70705512 -3.85974801 6.70705512 -3 9 C-0.61435923 8.42415568 1.66682784 7.77772405 4 7 C4 8.32 4 9.64 4 11 C-0.455 11.495 -0.455 11.495 -5 12 C-9.01785714 6.64285714 -9.01785714 6.64285714 -8.9375 3.75 C-6.83463852 -0.17534142 -4.00230863 -0.21634101 0 0 Z " fill="#353535" transform="translate(681,648)"/>
<path d="M0 0 C0 0.99 0 1.98 0 3 C-2.31 3 -4.62 3 -7 3 C-7.33 4.65 -7.66 6.3 -8 8 C-4.94736336 8.98120464 -3.05263664 8.98120464 0 8 C0 8.99 0 9.98 0 11 C-2.77100394 12.38550197 -4.9334706 12.1877467 -8 12 C-8.99 11.34 -9.98 10.68 -11 10 C-11.36750064 6.63124415 -11.57975504 4.12327538 -10 1.0625 C-6.73357754 -0.67278693 -3.65648548 -0.17982715 0 0 Z " fill="#292928" transform="translate(793,648)"/>
<path d="M0 0 C0.99 0 1.98 0 3 0 C3.66 2.31 4.32 4.62 5 7 C6.32 4.69 7.64 2.38 9 0 C9.99 0.33 10.98 0.66 12 1 C10.02 4.63 8.04 8.26 6 12 C4.68 12 3.36 12 2 12 C0.86235649 7.73383684 0 4.43513689 0 0 Z " fill="#383736" transform="translate(474,648)"/>
<path d="M0 0 C0.66 0 1.32 0 2 0 C2 0.66 2 1.32 2 2 C2.99 2 3.98 2 5 2 C5 2.66 5 3.32 5 4 C4.01 4.33 3.02 4.66 2 5 C1.67 7.64 1.34 10.28 1 13 C1.99 13.33 2.98 13.66 4 14 C2.34385343 14.38218767 0.67542976 14.71395102 -1 15 C-2 14 -2 14 -2.125 10.625 C-2 7 -2 7 -1 4 C-1.66 4 -2.32 4 -3 4 C-3 3.34 -3 2.68 -3 2 C-2.01 2 -1.02 2 0 2 C0 1.34 0 0.68 0 0 Z " fill="#2C2B2B" transform="translate(552,645)"/>
<path d="M0 0 C0.78375 0.04125 1.5675 0.0825 2.375 0.125 C3.0625 2.4375 3.0625 2.4375 3.375 5.125 C2.1875 7 2.1875 7 0.375 8.125 C-1.8125 7.8125 -1.8125 7.8125 -3.625 7.125 C-4.25 4.75 -4.25 4.75 -4.625 2.125 C-2.625 0.125 -2.625 0.125 0 0 Z " fill="#E9E8E7" transform="translate(760.625,649.875)"/>
<path d="M0 0 C0.78375 0.04125 1.5675 0.0825 2.375 0.125 C3.0625 2.4375 3.0625 2.4375 3.375 5.125 C2.1875 7 2.1875 7 0.375 8.125 C-1.8125 7.8125 -1.8125 7.8125 -3.625 7.125 C-4.25 4.75 -4.25 4.75 -4.625 2.125 C-2.625 0.125 -2.625 0.125 0 0 Z " fill="#EBEAEA" transform="translate(680.625,649.875)"/>
<path d="M0 0 C0.66 0 1.32 0 2 0 C3.53266582 3.06533164 3.10276471 6.26754272 3.0625 9.625 C3.05798828 10.33140625 3.05347656 11.0378125 3.04882812 11.765625 C3.03703875 13.51045275 3.01910324 15.255237 3 17 C2.01 17.33 1.02 17.66 0 18 C0 12.06 0 6.12 0 0 Z " fill="#549B72" transform="translate(646,455)"/>
<path d="M0 0 C3.125 0.375 3.125 0.375 6 1 C5.25 5.75 5.25 5.75 3 8 C0.875 7.625 0.875 7.625 -1 7 C-1.625 4.625 -1.625 4.625 -2 2 C-1.34 1.34 -0.68 0.68 0 0 Z " fill="#E9E8E7" transform="translate(772,650)"/>
<path d="M0 0 C2.5 0.125 2.5 0.125 3.5 1.125 C3.6875 3.5625 3.6875 3.5625 3.5 6.125 C2.84 6.785 2.18 7.445 1.5 8.125 C-1.125 7.75 -1.125 7.75 -3.5 7.125 C-3.54254356 5.12545254 -3.54080783 3.12458364 -3.5 1.125 C-2.5 0.125 -2.5 0.125 0 0 Z " fill="#EBEAEA" transform="translate(612.5,649.875)"/>
<path d="M0 0 C2.79947917 0.06510417 5.59895833 0.13020833 8.3984375 0.1953125 C8.0684375 3.8253125 7.7384375 7.4553125 7.3984375 11.1953125 C7.0684375 11.1953125 6.7384375 11.1953125 6.3984375 11.1953125 C6.0684375 8.5553125 5.7384375 5.9153125 5.3984375 3.1953125 C2.56691777 2.77722049 2.56691777 2.77722049 -0.6015625 3.1953125 C-3.00562634 5.57373827 -3.00562634 5.57373827 -4.6015625 8.1953125 C-4.7265625 5.3203125 -4.7265625 5.3203125 -4.6015625 2.1953125 C-2.6015625 0.1953125 -2.6015625 0.1953125 0 0 Z " fill="#3C3B3B" transform="translate(772.6015625,647.8046875)"/>
<path d="M0 0 C0.99 0 1.98 0 3 0 C2.01 5.28 1.02 10.56 0 16 C-2.64 16 -5.28 16 -8 16 C-7.360625 15.690625 -6.72125 15.38125 -6.0625 15.0625 C-4.06389179 14.1654837 -4.06389179 14.1654837 -3 13 C-2.63239269 10.67182036 -2.29758419 8.3381615 -2 6 C-1.34 6 -0.68 6 0 6 C0 4.02 0 2.04 0 0 Z " fill="#232323" transform="translate(618,643)"/>
<path d="M0 0 C0.33 1.32 0.66 2.64 1 4 C0.38125 4.2475 -0.2375 4.495 -0.875 4.75 C-3.35068687 6.20628639 -3.95125002 7.37812506 -5 10 C-5.66 10 -6.32 10 -7 10 C-7 15.61 -7 21.22 -7 27 C-7.33 27 -7.66 27 -8 27 C-9.22690583 10.09596413 -9.22690583 10.09596413 -6.21875 4.95703125 C-4.23863466 3.04315217 -2.3395892 1.44657636 0 0 Z " fill="#588E6B" transform="translate(586,399)"/>
<path d="M0 0 C1.79275866 3.11910856 2.34290718 5.67682428 2.625 9.25 C2.69976563 10.14203125 2.77453125 11.0340625 2.8515625 11.953125 C2.90054688 12.62859375 2.94953125 13.3040625 3 14 C2.195625 14.12375 1.39125 14.2475 0.5625 14.375 C-0.283125 14.58125 -1.12875 14.7875 -2 15 C-2.33 15.66 -2.66 16.32 -3 17 C-2.855625 16.195625 -2.71125 15.39125 -2.5625 14.5625 C-2.00471254 11.02984612 -1.62019113 7.51200686 -1.28125 3.953125 C-1 2 -1 2 0 0 Z " fill="#DDDCDC" transform="translate(707,647)"/>
<path d="M0 0 C0.78375 0.04125 1.5675 0.0825 2.375 0.125 C2.5 3 2.5 3 2.375 6.125 C1.715 6.785 1.055 7.445 0.375 8.125 C-2.25 7.75 -2.25 7.75 -4.625 7.125 C-4.75 4.75 -4.75 4.75 -4.625 2.125 C-2.625 0.125 -2.625 0.125 0 0 Z " fill="#ECECEB" transform="translate(701.625,649.875)"/>
<path d="M0 0 C0.66 0.66 1.32 1.32 2 2 C1.9765625 4.6015625 1.9765625 4.6015625 1.625 7.625 C1.45871094 9.12933594 1.45871094 9.12933594 1.2890625 10.6640625 C1.14597656 11.82035156 1.14597656 11.82035156 1 13 C0.34 13 -0.32 13 -1 13 C-1 9.7 -1 6.4 -1 3 C-2.65 3.33 -4.3 3.66 -6 4 C-6 3.34 -6 2.68 -6 2 C-6.66 1.67 -7.32 1.34 -8 1 C-5.03104944 0.01034981 -3.0913386 -0.23779528 0 0 Z " fill="#3E3D3D" transform="translate(749,647)"/>
<path d="M0 0 C1.2065625 0.0309375 1.2065625 0.0309375 2.4375 0.0625 C3.125 2.375 3.125 2.375 3.4375 5.0625 C2.25 6.9375 2.25 6.9375 0.4375 8.0625 C-1.75 7.75 -1.75 7.75 -3.5625 7.0625 C-3.60504356 5.06295254 -3.60330783 3.06208364 -3.5625 1.0625 C-2.5625 0.0625 -2.5625 0.0625 0 0 Z " fill="#EDEDEC" transform="translate(525.5625,649.9375)"/>
<path d="M0 0 C0.78375 0.04125 1.5675 0.0825 2.375 0.125 C2.5 3 2.5 3 2.375 6.125 C1.715 6.785 1.055 7.445 0.375 8.125 C-1.75 7.75 -1.75 7.75 -3.625 7.125 C-4.25 4.75 -4.25 4.75 -4.625 2.125 C-2.625 0.125 -2.625 0.125 0 0 Z " fill="#EEEEED" transform="translate(452.625,649.875)"/>
<path d="M0 0 C0.33 0 0.66 0 1 0 C1.19652332 4.43714898 1.38067922 8.87472615 1.5625 13.3125 C1.61857422 14.57513672 1.67464844 15.83777344 1.73242188 17.13867188 C1.78076172 18.34716797 1.82910156 19.55566406 1.87890625 20.80078125 C1.9260376 21.91622314 1.97316895 23.03166504 2.02172852 24.1809082 C2 27 2 27 1 30 C2.32 29.67 3.64 29.34 5 29 C2.525 31.475 2.525 31.475 0 34 C0 22.78 0 11.56 0 0 Z " fill="#28552E" transform="translate(559,520)"/>
<path d="M0 0 C3.125 0.375 3.125 0.375 6 1 C5.360625 1.226875 4.72125 1.45375 4.0625 1.6875 C1.76757003 2.84336241 1.76757003 2.84336241 1.1875 5.4375 C0.82612179 8.11939103 0.82612179 8.11939103 2 11 C3.65 11 5.3 11 7 11 C7 11.33 7 11.66 7 12 C0.67402207 12.35807422 0.67402207 12.35807422 -2 10.9375 C-3.61647822 7.80557344 -2.78665296 5.32814714 -2 2 C-1.34 1.34 -0.68 0.68 0 0 Z " fill="#363635" transform="translate(448,648)"/>
<path d="M0 0 C0.66 0.66 1.32 1.32 2 2 C1.67 2.33 1.34 2.66 1 3 C0.75266863 7.14276875 0.75266863 7.14276875 2 11 C0.125 11.625 0.125 11.625 -2 12 C-4 10 -4 10 -4.1953125 8.0546875 C-4.13020833 6.03645833 -4.06510417 4.01822917 -4 2 C-2.68 1.34 -1.36 0.68 0 0 Z " fill="#E3E2E2" transform="translate(557,648)"/>
<path d="M0 0 C1.093125 0.226875 2.18625 0.45375 3.3125 0.6875 C2.9825 2.3375 2.6525 3.9875 2.3125 5.6875 C0.0025 5.6875 -2.3075 5.6875 -4.6875 5.6875 C-4.6875 5.0275 -4.6875 4.3675 -4.6875 3.6875 C-5.3475 3.3575 -6.0075 3.0275 -6.6875 2.6875 C-4.58035839 -0.41123767 -3.86755884 -0.32775922 0 0 Z " fill="#434342" transform="translate(492.6875,647.3125)"/>
<path d="M0 0 C2.375 -0.125 2.375 -0.125 5 0 C7 2 7 2 7.01171875 4.09375 C6.90472656 4.8878125 6.79773438 5.681875 6.6875 6.5 C6.58824219 7.2940625 6.48898437 8.088125 6.38671875 8.90625 C6 11 6 11 5 13 C4.34 13 3.68 13 3 13 C3 9.7 3 6.4 3 3 C2.01 2.67 1.02 2.34 0 2 C0 1.34 0 0.68 0 0 Z " fill="#393938" transform="translate(588,647)"/>
<path d="M0 0 C0.66 0 1.32 0 2 0 C3.28317892 3.84953676 3.06643637 6.94738135 3 11 C2.195625 11.12375 1.39125 11.2475 0.5625 11.375 C-0.283125 11.58125 -1.12875 11.7875 -2 12 C-2.33 12.66 -2.66 13.32 -3 14 C-3.35443365 9.74679615 -2.49290822 8.32387762 0 5 C0.25124826 2.33238236 0.25124826 2.33238236 0 0 Z " fill="#E8E7E7" transform="translate(531,650)"/>
<path d="M0 0 C0.99 0 1.98 0 3 0 C3 1.32 3 2.64 3 4 C4.65 4 6.3 4 8 4 C8 4.99 8 5.98 8 7 C5.69 7.66 3.38 8.32 1 9 C-0.61949011 6.42786866 -1.04408751 5.32330841 -0.625 2.25 C-0.41875 1.5075 -0.2125 0.765 0 0 Z " fill="#3F3E3E" transform="translate(696,643)"/>
<path d="M0 0 C1.98 0 3.96 0 6 0 C6 0.66 6 1.32 6 2 C5.01 2.33 4.02 2.66 3 3 C2.19436362 5.10584438 2.19436362 5.10584438 1.8125 7.5625 C1.65394531 8.38878906 1.49539063 9.21507812 1.33203125 10.06640625 C1.22246094 10.70449219 1.11289062 11.34257813 1 12 C0.01 12 -0.98 12 -2 12 C-1 3.42857143 -1 3.42857143 0 0 Z " fill="#2B2B2B" transform="translate(462,648)"/>
<path d="M0 0 C0 4.62 0 9.24 0 14 C-0.99 13.67 -1.98 13.34 -3 13 C-3 9.04 -3 5.08 -3 1 C-1 0 -1 0 0 0 Z " fill="#3E784E" transform="translate(531,375)"/>
<path d="M0 0 C0 3 0 3 -1.37695312 4.7175293 C-2.00537109 5.33023682 -2.63378906 5.94294434 -3.28125 6.57421875 C-3.95800781 7.24130859 -4.63476562 7.90839844 -5.33203125 8.59570312 C-6.04746094 9.28599609 -6.76289062 9.97628906 -7.5 10.6875 C-8.57314453 11.7403418 -8.57314453 11.7403418 -9.66796875 12.81445312 C-11.43879577 14.54986361 -13.21623456 16.2779073 -15 18 C-15.66 17.67 -16.32 17.34 -17 17 C-16.25234375 16.26394531 -15.5046875 15.52789062 -14.734375 14.76953125 C-13.73944821 13.78399056 -12.74466412 12.79830579 -11.75 11.8125 C-11.25886719 11.32974609 -10.76773438 10.84699219 -10.26171875 10.34960938 C-7.9393324 8.0427056 -5.81235304 5.76478519 -3.765625 3.19921875 C-2 1 -2 1 0 0 Z " fill="#E5F7EC" transform="translate(603,372)"/>
<path d="M0 0 C0.33 0 0.66 0 1 0 C1.33 3.3 1.66 6.6 2 10 C1.01 9.67 0.02 9.34 -1 9 C-1 8.34 -1 7.68 -1 7 C-2.98 7.33 -4.96 7.66 -7 8 C-7.66 6.68 -8.32 5.36 -9 4 C-6.03 4 -3.06 4 0 4 C0 2.68 0 1.36 0 0 Z M-4 5 C-4 5.33 -4 5.66 -4 6 C-2.35 6 -0.7 6 1 6 C1 5.67 1 5.34 1 5 C-0.65 5 -2.3 5 -4 5 Z " fill="#BFBFBF" transform="translate(632,650)"/>
<path d="M0 0 C0.33 0 0.66 0 1 0 C1 3.3 1 6.6 1 10 C0.34 9.34 -0.32 8.68 -1 8 C-3.65537372 7.43479997 -6.29144713 7.26211802 -9 7 C-9 6.01 -9 5.02 -9 4 C-6.03 4 -3.06 4 0 4 C0 2.68 0 1.36 0 0 Z " fill="#D5D4D4" transform="translate(497,650)"/>
<path d="M0 0 C1.64574566 -0.02688151 3.29161413 -0.04634123 4.9375 -0.0625 C5.85402344 -0.07410156 6.77054688 -0.08570313 7.71484375 -0.09765625 C10 0 10 0 11 1 C11.04080783 2.99958364 11.04254356 5.00045254 11 7 C9 6 9 6 8 3 C4.28263359 2.65099442 4.28263359 2.65099442 1.1875 4.5 C0.795625 4.995 0.40375 5.49 0 6 C0 4.02 0 2.04 0 0 Z " fill="#262524" transform="translate(755,648)"/>
<path d="M0 0 C1.20628008 2.33214148 2.1654738 4.49642139 3 7 C5.31 7 7.62 7 10 7 C10 7.66 10 8.32 10 9 C7.20129973 10.39935013 5.09501208 10.25265405 2 10 C0.125 8.875 0.125 8.875 -1 7 C-1.25 3.875 -1.25 3.875 -1 1 C-0.67 0.67 -0.34 0.34 0 0 Z " fill="#333232" transform="translate(558,650)"/>
<path d="M0 0 C3.3 0 6.6 0 10 0 C10.33 0.99 10.66 1.98 11 3 C10.34 3 9.68 3 9 3 C8.67 3.66 8.34 4.32 8 5 C8 4.34 8 3.68 8 3 C6.576875 3.2784375 6.576875 3.2784375 5.125 3.5625 C2 4 2 4 0 3 C0 2.01 0 1.02 0 0 Z " fill="#CBCBCB" transform="translate(663,654)"/>
<path d="M0 0 C2.31 0.33 4.62 0.66 7 1 C6.34 4.63 5.68 8.26 5 12 C4.34 12 3.68 12 3 12 C3.03480469 11.30132813 3.06960938 10.60265625 3.10546875 9.8828125 C3.13253906 8.97273437 3.15960937 8.06265625 3.1875 7.125 C3.22230469 6.22007812 3.25710938 5.31515625 3.29296875 4.3828125 C3.14794922 3.20332031 3.14794922 3.20332031 3 2 C2.01 1.34 1.02 0.68 0 0 Z " fill="#242423" transform="translate(736,648)"/>
<path d="M0 0 C0.99 0.99 1.98 1.98 3 3 C2.75 6.375 2.75 6.375 2 10 C1.814375 10.969375 1.62875 11.93875 1.4375 12.9375 C1.293125 13.618125 1.14875 14.29875 1 15 C0.01 14.67 -0.98 14.34 -2 14 C-1.34 9.38 -0.68 4.76 0 0 Z " fill="#CECDCE" transform="translate(459,645)"/>
<path d="M0 0 C0.99 0 1.98 0 3 0 C2.85831863 1.43791516 2.71148957 2.8753237 2.5625 4.3125 C2.48128906 5.11300781 2.40007813 5.91351562 2.31640625 6.73828125 C2 9 2 9 1 12 C0.34 12 -0.32 12 -1 12 C-1.14285714 3.42857143 -1.14285714 3.42857143 0 0 Z " fill="#393938" transform="translate(726,648)"/>
<path d="M0 0 C0.66 0 1.32 0 2 0 C1.67 3.63 1.34 7.26 1 11 C0.01 11.33 -0.98 11.66 -2 12 C-1.85904936 10.3745692 -1.71207913 8.74965949 -1.5625 7.125 C-1.48128906 6.22007812 -1.40007812 5.31515625 -1.31640625 4.3828125 C-1 2 -1 2 0 0 Z " fill="#313030" transform="translate(470,648)"/>
<path d="M0 0 C0.33 1.32 0.66 2.64 1 4 C4.3 4.33 7.6 4.66 11 5 C10.67 5.99 10.34 6.98 10 8 C3.59181818 8.36272727 3.59181818 8.36272727 1.0625 6.8125 C-0.32851983 4.43958382 -0.21917317 2.70313576 0 0 Z " fill="#3E3D3D" transform="translate(620,652)"/>
<path d="M0 0 C0.33 0 0.66 0 1 0 C1 1.65 1 3.3 1 5 C3.64 4.67 6.28 4.34 9 4 C8.67 4.99 8.34 5.98 8 7 C4.625 7.625 4.625 7.625 1 8 C0.34 7.34 -0.32 6.68 -1 6 C-0.625 2.875 -0.625 2.875 0 0 Z " fill="#474646" transform="translate(572,652)"/>
<path d="M0 0 C0.66 0 1.32 0 2 0 C1.34 3.96 0.68 7.92 0 12 C-0.99 12 -1.98 12 -3 12 C-2.69106068 10.3743193 -2.3777305 8.74947252 -2.0625 7.125 C-1.88847656 6.22007812 -1.71445312 5.31515625 -1.53515625 4.3828125 C-1 2 -1 2 0 0 Z " fill="#343433" transform="translate(643,648)"/>
<path d="M0 0 C0.99 0 1.98 0 3 0 C3 0.66 3 1.32 3 2 C3.99 2 4.98 2 6 2 C6 2.99 6 3.98 6 5 C4.68 5 3.36 5 2 5 C1.67 5.66 1.34 6.32 1 7 C0.01 6.34 -0.98 5.68 -2 5 C-2 4.34 -2 3.68 -2 3 C-1.34 3 -0.68 3 0 3 C0 2.01 0 1.02 0 0 Z " fill="#3F3F3E" transform="translate(797,645)"/>
<path d="M0 0 C2.64 0 5.28 0 8 0 C8 0.66 8 1.32 8 2 C5.69 2 3.38 2 1 2 C1 2.99 1 3.98 1 5 C1.66 5.33 2.32 5.66 3 6 C2.01 6 1.02 6 0 6 C-0.33 6.99 -0.66 7.98 -1 9 C-2.25541557 5.23375329 -1.37061958 3.62811066 0 0 Z " fill="#1C1C1B" transform="translate(638,643)"/>
<path d="M0 0 C0.99 0 1.98 0 3 0 C2.34 3.96 1.68 7.92 1 12 C0.01 12 -0.98 12 -2 12 C-1.34 8.04 -0.68 4.08 0 0 Z " fill="#E8E8E8" transform="translate(729,648)"/>
<path d="M0 0 C0.33 0 0.66 0 1 0 C1.0825 1.093125 1.165 2.18625 1.25 3.3125 C1.63689209 7.03276664 1.63689209 7.03276664 4.0625 8.9375 C4.701875 9.288125 5.34125 9.63875 6 10 C3.36 10.33 0.72 10.66 -2 11 C-1.125 3.375 -1.125 3.375 0 0 Z " fill="#201F1E" transform="translate(520,649)"/>
<path d="M0 0 C0.99 0.66 1.98 1.32 3 2 C3.29296875 4.6015625 3.29296875 4.6015625 3.1875 7.625 C3.16042969 8.62789063 3.13335938 9.63078125 3.10546875 10.6640625 C3.07066406 11.43492187 3.03585937 12.20578125 3 13 C1.02 13 -0.96 13 -3 13 C-2.01 12.34 -1.02 11.68 0 11 C0.36460453 8.33346095 0.36460453 8.33346095 0.1875 5.375 C0.16042969 4.37210937 0.13335938 3.36921875 0.10546875 2.3359375 C0.05326172 1.17964844 0.05326172 1.17964844 0 0 Z " fill="#4F936E" transform="translate(631,442)"/>
<path d="M0 0 C0.99 0.495 0.99 0.495 2 1 C2.37890625 3.43359375 2.37890625 3.43359375 2.5625 6.4375 C2.73109366 10.36535217 2.73109366 10.36535217 4 14 C2.68 14 1.36 14 0 14 C0 9.38 0 4.76 0 0 Z " fill="#569672" transform="translate(641,441)"/>
<path d="M0 0 C0.66 0 1.32 0 2 0 C3.23076923 6.4 3.23076923 6.4 2.0625 9.4375 C1.711875 9.953125 1.36125 10.46875 1 11 C0.01 10.34 -0.98 9.68 -2 9 C-1.67 8.67 -1.34 8.34 -1 8 C-0.76924918 6.65252916 -0.58846937 5.29622435 -0.4375 3.9375 C-0.293125 2.638125 -0.14875 1.33875 0 0 Z " fill="#343332" transform="translate(704,648)"/>
<path d="M0 0 C3 1 3 1 4 3 C4.04022391 5.3329866 4.04320247 7.66706666 4 10 C4.66 10.33 5.32 10.66 6 11 C5.01 11.33 4.02 11.66 3 12 C2.49440092 10.56445975 1.9957251 9.1264798 1.5 7.6875 C1.2215625 6.88699219 0.943125 6.08648438 0.65625 5.26171875 C0 3 0 3 0 0 Z " fill="#2D2C2C" transform="translate(532,647)"/>
<path d="M0 0 C0.99 0 1.98 0 3 0 C3.66 3.63 4.32 7.26 5 11 C4.01 11 3.02 11 2 11 C0.80712589 7.12315913 0 4.08378077 0 0 Z " fill="#2E2D2C" transform="translate(474,648)"/>
<path d="M0 0 C0.33 0.66 0.66 1.32 1 2 C3.64 2 6.28 2 9 2 C8.67 2.99 8.34 3.98 8 5 C5.69 5 3.38 5 1 5 C0.34 3.68 -0.32 2.36 -1 1 C-0.67 0.67 -0.34 0.34 0 0 Z " fill="#31302F" transform="translate(662,655)"/>
<path d="M0 0 C0.33 0 0.66 0 1 0 C0.67 3.3 0.34 6.6 0 10 C-0.99 10.33 -1.98 10.66 -3 11 C-2.88590407 9.54077307 -2.75834456 8.08259402 -2.625 6.625 C-2.55539062 5.81289063 -2.48578125 5.00078125 -2.4140625 4.1640625 C-2 2 -2 2 0 0 Z " fill="#3D3C3D" transform="translate(510,649)"/>
<path d="M0 0 C0 3 0 3 -1.875 5.1875 C-4 7 -4 7 -6 7 C-6.33 7.99 -6.66 8.98 -7 10 C-7.66 10 -8.32 10 -9 10 C-7.61811547 6.78956118 -6.07578097 4.95063635 -3.375 2.75 C-2.74335937 2.22921875 -2.11171875 1.7084375 -1.4609375 1.171875 C-0.73777344 0.59179688 -0.73777344 0.59179688 0 0 Z " fill="#456744" transform="translate(617,561)"/>
<path d="M0 0 C2.475 0.99 2.475 0.99 5 2 C4.34 2.66 3.68 3.32 3 4 C2.83322718 7.58343976 2.83322718 7.58343976 3 11 C2.01 10.34 1.02 9.68 0 9 C-0.29296875 6.8359375 -0.29296875 6.8359375 -0.1875 4.375 C-0.16042969 3.55773437 -0.13335938 2.74046875 -0.10546875 1.8984375 C-0.05326172 0.95871094 -0.05326172 0.95871094 0 0 Z " fill="#50906E" transform="translate(609,400)"/>
<path d="M0 0 C2.10814567 4.21629134 2.17700355 6.39790775 2 11 C1.01 11.33 0.02 11.66 -1 12 C-0.67 8.04 -0.34 4.08 0 0 Z " fill="#424142" transform="translate(499,648)"/>
<path d="M0 0 C0.33 1.32 0.66 2.64 1 4 C0.34 4 -0.32 4 -1 4 C-1.33 4.66 -1.66 5.32 -2 6 C-4.97 5.505 -4.97 5.505 -8 5 C-7.67 4.01 -7.34 3.02 -7 2 C-4.69 2.33 -2.38 2.66 0 3 C0 2.01 0 1.02 0 0 Z " fill="#50504E" transform="translate(617,645)"/>
<path d="M0 0 C0.66 0 1.32 0 2 0 C0.55746343 3.36591866 -1.33264727 5.51047079 -4 8 C-4.99 7.67 -5.98 7.34 -7 7 C-4.66666667 4.66666667 -2.33333333 2.33333333 0 0 Z " fill="#478158" transform="translate(588,524)"/>
<path d="M0 0 C-3.75 1.125 -3.75 1.125 -6 0 C-6.33 0.99 -6.66 1.98 -7 3 C-9.0625 4.1875 -9.0625 4.1875 -11 5 C-11.66 4.34 -12.32 3.68 -13 3 C-8.30609874 -0.77801809 -5.8692391 -1.40861738 0 0 Z " fill="#529872" transform="translate(689,337)"/>
<path d="M0 0 C1.32 0.33 2.64 0.66 4 1 C3.60404157 2.48484412 3.18249294 3.9628831 2.75 5.4375 C2.51796875 6.26121094 2.2859375 7.08492187 2.046875 7.93359375 C1 10 1 10 -1.109375 10.78515625 C-1.73328125 10.85605469 -2.3571875 10.92695312 -3 11 C-2.03798279 8.52624146 -1.07997011 6.14731335 0.1875 3.8125 C0.455625 3.214375 0.72375 2.61625 1 2 C0.67 1.34 0.34 0.68 0 0 Z " fill="#CECDCC" transform="translate(484,647)"/>
<path d="M0 0 C1.32 0.99 2.64 1.98 4 3 C2.63016497 6.16115776 2.0109362 6.9927092 -1 9 C-0.67 6.03 -0.34 3.06 0 0 Z " fill="#547455" transform="translate(660,603)"/>
<path d="M0 0 C0.66 0 1.32 0 2 0 C2 1.32 2 2.64 2 4 C-2.455 4.495 -2.455 4.495 -7 5 C-7 4.34 -7 3.68 -7 3 C-5.5459375 2.5359375 -5.5459375 2.5359375 -4.0625 2.0625 C-1.15934208 1.30476658 -1.15934208 1.30476658 0 0 Z " fill="#262626" transform="translate(683,655)"/>
<path d="M0 0 C0.33 0.66 0.66 1.32 1 2 C1.66 2 2.32 2 3 2 C2.67 4.64 2.34 7.28 2 10 C1.01 9.67 0.02 9.34 -1 9 C-0.67 6.03 -0.34 3.06 0 0 Z " fill="#D4D4D3" transform="translate(751,650)"/>
<path d="M0 0 C0.66 0.33 1.32 0.66 2 1 C1.67 1.99 1.34 2.98 1 4 C-1.31 4.33 -3.62 4.66 -6 5 C-5.34 5.66 -4.68 6.32 -4 7 C-5.65 6.67 -7.3 6.34 -9 6 C-9 5.01 -9 4.02 -9 3 C-6.03 3 -3.06 3 0 3 C0 2.01 0 1.02 0 0 Z " fill="#A1A1A0" transform="translate(569,651)"/>
<path d="M0 0 C0.66 0 1.32 0 2 0 C1.67 3.3 1.34 6.6 1 10 C0.01 10 -0.98 10 -2 10 C-1.34 6.7 -0.68 3.4 0 0 Z " fill="#222222" transform="translate(584,650)"/>
<path d="M0 0 C0.99 0.33 1.98 0.66 3 1 C3.33 3.64 3.66 6.28 4 9 C3.01 8.67 2.02 8.34 1 8 C0.67 5.36 0.34 2.72 0 0 Z " fill="#40403F" transform="translate(708,647)"/>
<path d="M0 0 C0.94875 0.04125 1.8975 0.0825 2.875 0.125 C2.111875 0.7025 1.34875 1.28 0.5625 1.875 C-1.78700917 3.84203093 -3.41823505 5.60976744 -5.125 8.125 C-5.25 5.25 -5.25 5.25 -5.125 2.125 C-3.125 0.125 -3.125 0.125 0 0 Z " fill="#262524" transform="translate(773.125,647.875)"/>
<path d="M0 0 C1.32 0.33 2.64 0.66 4 1 C4 5.62 4 10.24 4 15 C2 13 2 13 1.8046875 10.6171875 C1.82789063 9.71226562 1.85109375 8.80734375 1.875 7.875 C1.89304687 6.96492187 1.91109375 6.05484375 1.9296875 5.1171875 C1.95289063 4.41851562 1.97609375 3.71984375 2 3 C1.34 3 0.68 3 0 3 C0 2.01 0 1.02 0 0 Z " fill="#498F69" transform="translate(623,217)"/>
<path d="M0 0 C3.48832306 2.20927127 4.73058503 4.08597051 6 8 C5.01 8.33 4.02 8.66 3 9 C0.90250005 6.64031256 0.03094296 5.45383006 -0.1875 2.25 C-0.125625 1.5075 -0.06375 0.765 0 0 Z " fill="#5A5958" transform="translate(766,650)"/>
<path d="M0 0 C0 0.99 0 1.98 0 3 C-2.70879335 4.35439668 -5.00933268 4.06501451 -8 4 C-8 3.34 -8 2.68 -8 2 C-2.25 0 -2.25 0 0 0 Z " fill="#403F40" transform="translate(793,656)"/>
<path d="M0 0 C1.98 0 3.96 0 6 0 C6 0.99 6 1.98 6 3 C3.69 3 1.38 3 -1 3 C-0.67 2.01 -0.34 1.02 0 0 Z " fill="#C9C9C9" transform="translate(624,650)"/>
<path d="M0 0 C2.01136276 2.55991624 3.62845496 5.04590299 5 8 C4.01 8 3.02 8 2 8 C0.25 5.6875 0.25 5.6875 -1 3 C-0.67 2.01 -0.34 1.02 0 0 Z " fill="#486946" transform="translate(607,596)"/>
<path d="M0 0 C0.33 0 0.66 0 1 0 C1 2.31 1 4.62 1 7 C-2.16115776 5.63016497 -2.9927092 5.0109362 -5 2 C-3.68 2 -2.36 2 -1 2 C-0.67 1.34 -0.34 0.68 0 0 Z " fill="#5F9978" transform="translate(649,548)"/>
<path d="M0 0 C2.3125 0.875 2.3125 0.875 4.3125 2.875 C3.260625 2.854375 2.20875 2.83375 1.125 2.8125 C-2.01454904 2.86396802 -4.65633396 3.14017187 -7.6875 3.875 C-3.40946105 -0.15857958 -3.40946105 -0.15857958 0 0 Z " fill="#DAF4E6" transform="translate(711.6875,435.125)"/>
<path d="M0 0 C-1.26239712 0.86658615 -2.53527501 1.71792059 -3.8125 2.5625 C-4.87404297 3.27599609 -4.87404297 3.27599609 -5.95703125 4.00390625 C-8 5 -8 5 -11 4 C-3.77464789 -1.88732394 -3.77464789 -1.88732394 0 0 Z " fill="#446E49" transform="translate(496,363)"/>
<path d="M0 0 C0.33 0 0.66 0 1 0 C1.33 2.97 1.66 5.94 2 9 C-0.31 8.67 -2.62 8.34 -5 8 C-4.360625 7.608125 -3.72125 7.21625 -3.0625 6.8125 C-0.56221181 4.61527704 -0.35049575 3.24208567 0 0 Z " fill="#333232" transform="translate(455,651)"/>
<path d="M0 0 C0.99 0.33 1.98 0.66 3 1 C0.525 4.465 0.525 4.465 -2 8 C-2.33 6.68 -2.66 5.36 -3 4 C-1.5625 1.75 -1.5625 1.75 0 0 Z " fill="#242424" transform="translate(542,648)"/>
<path d="M0 0 C1.65 0 3.3 0 5 0 C5.33 0.99 5.66 1.98 6 3 C3.69 3 1.38 3 -1 3 C-0.67 2.01 -0.34 1.02 0 0 Z " fill="#D0CFD0" transform="translate(561,650)"/>
<path d="M0 0 C1.65 0 3.3 0 5 0 C5.33 0.99 5.66 1.98 6 3 C3.69 3 1.38 3 -1 3 C-0.67 2.01 -0.34 1.02 0 0 Z " fill="#D6D5D5" transform="translate(489,650)"/>
<path d="M0 0 C0.99 0 1.98 0 3 0 C2.67 2.64 2.34 5.28 2 8 C0.68 7.01 -0.64 6.02 -2 5 C-1.34 3.35 -0.68 1.7 0 0 Z " fill="#444343" transform="translate(457,643)"/>
<path d="M0 0 C0.99 0.33 1.98 0.66 3 1 C1.35 2.65 -0.3 4.3 -2 6 C-2.99 5.67 -3.98 5.34 -5 5 C-3.35 3.35 -1.7 1.7 0 0 Z " fill="#D3EEE0" transform="translate(603,512)"/>
<path d="M0 0 C-4.95 2.475 -4.95 2.475 -10 5 C-10 4.01 -10 3.02 -10 2 C-4.5 -1.125 -4.5 -1.125 0 0 Z " fill="#4D926D" transform="translate(661,368)"/>
<path d="M0 0 C0.66 0.99 1.32 1.98 2 3 C-0.97 5.475 -0.97 5.475 -4 8 C-4.33 7.01 -4.66 6.02 -5 5 C-4.34 5 -3.68 5 -3 5 C-3 4.34 -3 3.68 -3 3 C-2.01 3 -1.02 3 0 3 C0 2.01 0 1.02 0 0 Z " fill="#599D75" transform="translate(606,365)"/>
<path d="M0 0 C-4.95 2.475 -4.95 2.475 -10 5 C-10 4.34 -10 3.68 -10 3 C-9.34 3 -8.68 3 -8 3 C-8 2.34 -8 1.68 -8 1 C-4.59449725 -1.06762667 -4.18836538 -1.04709135 0 0 Z " fill="#508E6A" transform="translate(587,223)"/>
<path d="M0 0 C0.66 0.66 1.32 1.32 2 2 C1.34 3.98 0.68 5.96 0 8 C-0.66 8 -1.32 8 -2 8 C-2.125 5.125 -2.125 5.125 -2 2 C-1.34 1.34 -0.68 0.68 0 0 Z " fill="#232222" transform="translate(608,649)"/>
<path d="M0 0 C0.66 0.33 1.32 0.66 2 1 C1.2884375 1.495 1.2884375 1.495 0.5625 2 C-1.85791615 5.09813267 -1.68198917 8.12026792 -2 12 C-2.33 12 -2.66 12 -3 12 C-3.08090971 10.37581255 -3.13914995 8.75048255 -3.1875 7.125 C-3.22230469 6.22007812 -3.25710938 5.31515625 -3.29296875 4.3828125 C-3.19628906 3.59648437 -3.09960938 2.81015625 -3 2 C-2.01 1.34 -1.02 0.68 0 0 Z " fill="#ECF9F0" transform="translate(535,252)"/>
<path d="M0 0 C0 0.66 0 1.32 0 2 C-2.70879335 3.35439668 -5.00933268 3.06501451 -8 3 C-8 2.34 -8 1.68 -8 1 C-5.23735711 0.40267181 -2.83967231 0 0 0 Z " fill="#313030" transform="translate(496,657)"/>
<path d="M0 0 C1.5 1.375 1.5 1.375 3 3 C3 3.66 3 4.32 3 5 C4.65 5 6.3 5 8 5 C8 5.33 8 5.66 8 6 C5.66705225 6.04241723 3.33297433 6.04092937 1 6 C0 5 0 5 -0.0625 2.4375 C-0.041875 1.633125 -0.02125 0.82875 0 0 Z " fill="#403F3E" transform="translate(447,654)"/>
<path d="M0 0 C0.33 0 0.66 0 1 0 C1 2.64 1 5.28 1 8 C0.01 8 -0.98 8 -2 8 C-1.47731534 5.23723823 -0.89130413 2.6739124 0 0 Z " fill="#323232" transform="translate(648,652)"/>
<path d="M0 0 C1.5625 1.125 1.5625 1.125 3 3 C2.6875 6.1875 2.6875 6.1875 2 9 C1.01 8.67 0.02 8.34 -1 8 C-0.67 5.36 -0.34 2.72 0 0 Z " fill="#D6D6D6" transform="translate(644,651)"/>
<path d="M0 0 C1.65 0 3.3 0 5 0 C5 0.99 5 1.98 5 3 C3.02 3 1.04 3 -1 3 C-0.67 2.01 -0.34 1.02 0 0 Z " fill="#DBDADA" transform="translate(665,650)"/>
<path d="M0 0 C0.763125 0.0825 1.52625 0.165 2.3125 0.25 C2.3125 1.24 2.3125 2.23 2.3125 3.25 C-0.3275 3.58 -2.9675 3.91 -5.6875 4.25 C-3.34903846 0.31153846 -3.34903846 0.31153846 0 0 Z " fill="#575757" transform="translate(626.6875,646.75)"/>
<path d="M0 0 C1.98 0 3.96 0 6 0 C5.01 0.495 5.01 0.495 4 1 C3.34227572 4.02934491 3.34227572 4.02934491 3 7 C2.896875 6.360625 2.79375 5.72125 2.6875 5.0625 C2.460625 4.381875 2.23375 3.70125 2 3 C1.01 2.67 0.02 2.34 -1 2 C-0.67 1.34 -0.34 0.68 0 0 Z " fill="#ACADAC" transform="translate(639,647)"/>
<path d="M0 0 C-1.39332574 3.36720387 -2.9789286 4.9859524 -6 7 C-6.66 6.67 -7.32 6.34 -8 6 C-7.0479279 4.99403703 -6.08812654 3.99538437 -5.125 3 C-4.59132813 2.443125 -4.05765625 1.88625 -3.5078125 1.3125 C-2 0 -2 0 0 0 Z " fill="#202020" transform="translate(405,546)"/>
<path d="M0 0 C0.99 0.33 1.98 0.66 3 1 C2.34 1.66 1.68 2.32 1 3 C0.53993654 5.20250992 0.53993654 5.20250992 0.375 7.625 C0.30023437 8.44226563 0.22546875 9.25953125 0.1484375 10.1015625 C0.07496094 11.04128906 0.07496094 11.04128906 0 12 C-0.33 12 -0.66 12 -1 12 C-1.02687279 10.18757948 -1.04633715 8.37504767 -1.0625 6.5625 C-1.07410156 5.55316406 -1.08570313 4.54382813 -1.09765625 3.50390625 C-1 1 -1 1 0 0 Z " fill="#3C7F55" transform="translate(559,323)"/>
</svg>
