<svg version="1.1" id="Layer_1" xmlns="http://www.w3.org/2000/svg" xmlns:xlink="http://www.w3.org/1999/xlink" x="0px" y="0px"
	 width="100%" viewBox="0 0 594 420" enable-background="new 0 0 594 420" xml:space="preserve">
<path fill="#000000" opacity="1.000000" stroke="none" 
	d="
M340.000000,421.000000 
	C226.666687,421.000000 113.833389,421.000000 1.000040,421.000000 
	C1.000000,351.000061 1.000000,281.000092 1.000000,211.000137 
	C1.000000,141.000153 1.000000,71.000168 1.000000,1.000136 
	C198.999893,1.000090 396.999786,1.000090 594.999756,1.000045 
	C594.999878,140.999863 594.999878,280.999725 594.999939,420.999786 
	C510.166656,421.000000 425.333344,421.000000 340.000000,421.000000 
M303.880280,154.444733 
	C303.683289,154.157181 303.413116,153.983063 302.654205,153.349091 
	C300.903656,152.526794 299.052094,151.867340 297.419464,150.854858 
	C288.979218,145.620453 288.730957,145.608856 280.345978,152.002853 
	C279.214050,152.646210 278.082123,153.289566 276.956635,153.962143 
	C276.956635,153.962143 276.927490,153.940689 276.215515,153.971527 
	C273.857544,155.635910 271.499542,157.300308 269.080231,159.915939 
	C269.094238,169.935944 269.108215,179.955963 268.994476,190.908524 
	C269.046204,198.951263 269.097931,206.993988 269.049561,215.970490 
	C269.112091,229.593185 269.174591,243.215866 269.147217,257.685059 
	C269.444244,261.750153 269.741241,265.815216 269.465393,270.101013 
	C267.664185,270.386505 265.829773,271.041046 264.068542,270.882507 
	C260.111237,270.526276 258.167450,272.142731 257.236084,276.286560 
	C256.826752,278.157074 256.417450,280.027557 255.833694,281.223419 
	C252.141632,272.475159 246.289978,268.781494 236.934036,270.390015 
	C233.545746,270.972534 230.073746,273.015442 227.382874,275.276215 
	C222.693130,279.216431 222.197998,284.840820 223.622559,290.988800 
	C219.208618,287.866699 215.605728,288.993896 211.402328,290.186920 
	C208.700684,290.953735 204.341263,289.608612 202.143494,287.632446 
	C197.799271,283.726288 198.218704,279.245148 202.013428,274.798553 
	C204.832016,271.495789 210.553192,270.754425 214.715271,273.929047 
	C219.107147,277.278961 220.654938,273.551117 222.682877,271.304230 
	C225.066650,268.663116 223.132568,266.924561 220.969421,265.233002 
	C214.747360,260.367432 202.079681,259.847382 196.616425,264.348663 
	C188.786987,270.799500 185.511734,283.467072 190.291809,291.128876 
	C193.933990,296.966858 199.247208,301.442139 206.605194,300.814178 
	C211.422653,300.403046 216.265121,298.778168 220.791962,296.945099 
	C224.424637,295.474121 227.358826,295.300049 230.538010,297.686707 
	C237.028412,302.559143 246.626633,301.703461 252.358337,295.950531 
	C253.751495,294.552216 255.319641,293.328247 256.912170,292.807495 
	C257.246918,294.480774 257.581665,296.154053 258.027863,298.441040 
	C261.150085,298.977264 264.353760,300.129150 267.352631,299.732513 
	C268.479004,299.583527 269.554840,295.904663 269.893005,293.717468 
	C270.344543,290.796997 269.641571,287.675720 270.239441,284.808533 
	C270.596161,283.097687 272.494324,281.708252 273.699585,280.174316 
	C275.296417,281.521332 277.905518,282.634888 278.281097,284.263550 
	C279.082886,287.740112 278.983490,291.497528 278.786438,295.114471 
	C278.482483,300.693756 279.215820,301.262604 284.827087,300.685516 
	C288.921173,300.264496 290.267303,298.345184 290.024445,294.532349 
	C289.866638,292.054504 290.150421,289.549530 290.011688,287.069305 
	C289.272400,273.853882 286.612183,269.717346 272.913849,269.967377 
	C272.582062,269.973450 272.250183,269.973419 272.297913,269.417633 
	C275.535217,266.330566 278.772552,263.243530 282.685242,259.977264 
	C285.461914,257.357849 288.238586,254.738434 291.719177,252.048065 
	C298.099701,257.976929 304.480194,263.905762 309.989655,269.918488 
	C308.164337,269.948364 306.332367,269.889526 304.514984,270.025513 
	C299.947479,270.367279 292.940308,276.006897 291.516327,280.399506 
	C289.552094,286.458649 291.495880,293.253815 296.273834,297.030975 
	C304.039551,303.169952 314.440857,302.645599 321.682648,295.795502 
	C320.345032,293.820648 319.014526,291.856323 317.975037,290.321594 
	C320.255280,288.878387 323.270874,287.987152 323.525818,286.591553 
	C324.020325,283.884705 323.690521,280.487183 322.367615,278.122467 
	C320.640717,275.035553 317.618073,272.673523 314.995117,269.074066 
	C314.983093,242.919327 314.968628,216.764603 314.960663,190.609863 
	C314.958618,183.948013 317.652069,180.760254 324.980438,178.985580 
	C324.980438,188.530685 324.980438,198.007431 324.980438,207.484177 
	C324.980438,216.905075 324.980438,226.325989 324.980438,235.655106 
	C336.597260,236.580826 337.589508,235.485443 335.513641,225.031052 
	C335.451538,224.718369 335.158691,224.430618 335.156769,224.130051 
	C335.131165,220.187653 337.204773,217.466110 340.301361,215.332153 
	C343.134796,213.379517 345.428925,214.486526 347.879669,216.292068 
	C350.114716,217.938736 352.564148,219.386002 355.102203,220.506271 
	C358.161804,221.856735 359.095673,223.966812 359.021515,227.178131 
	C358.848480,234.670822 358.872894,242.172012 359.022064,249.665680 
	C359.064575,251.802002 359.809631,253.924347 360.230560,256.043121 
	C362.805542,255.603058 364.558075,255.119232 366.329834,255.033752 
	C372.847687,254.719238 373.061707,254.709961 372.930359,248.267151 
	C372.768341,240.320251 371.599854,232.322556 372.226593,224.455185 
	C372.666718,218.930374 370.437653,217.076096 365.998474,216.002533 
	C365.998474,216.002533 366.023224,215.988007 365.653107,215.412186 
	C363.177490,213.822800 360.797119,212.053055 358.204956,210.684326 
	C353.809082,208.363159 351.219879,205.456772 351.854218,199.921600 
	C352.436157,194.843613 351.536560,189.598801 352.084747,184.513199 
	C352.804810,177.832977 351.304962,173.145523 344.263916,170.988068 
	C341.697327,170.201645 339.504852,168.161789 337.174530,166.643402 
	C332.029236,163.290848 329.293945,163.563766 324.273102,167.109192 
	C321.630310,168.975388 318.487762,170.133926 315.497192,171.649353 
	C313.980194,166.842346 317.498993,161.177902 311.072266,158.919174 
	C311.072266,158.919174 311.036743,158.890488 310.717560,158.300980 
	C309.348022,157.625397 307.978455,156.949799 306.200745,155.827744 
	C305.483612,155.520050 304.766510,155.212341 303.880280,154.444733 
M232.000351,172.977432 
	C232.000351,172.977432 231.958466,172.936951 231.244659,173.059891 
	C225.307907,175.884109 225.143723,176.273087 227.243210,182.460831 
	C227.243210,182.460831 227.304703,182.617920 227.163849,183.466782 
	C226.768219,194.087357 226.170120,204.705261 226.030548,215.329193 
	C225.872345,227.369873 226.068726,239.417023 226.299164,251.457748 
	C226.318954,252.491241 227.688736,254.297867 228.537979,254.363342 
	C230.878815,254.543839 233.276245,253.990417 235.931412,253.696228 
	C235.931412,251.214920 235.930649,249.225861 235.931503,247.236786 
	C235.940125,226.905121 235.887726,206.572968 236.051041,186.242538 
	C236.067688,184.170380 237.380341,182.108627 238.702454,179.731033 
	C241.822464,177.867844 244.942474,176.004669 248.665848,174.632553 
	C248.894699,179.859436 249.123566,185.086304 249.351257,190.286423 
	C258.803589,190.765747 258.823700,190.748245 257.291046,183.385391 
	C255.789780,183.146271 254.223755,182.896835 252.657730,182.647400 
	C256.731384,182.765030 258.111359,180.828293 258.069641,177.004501 
	C257.891754,160.693253 257.850006,144.380508 257.782684,127.458138 
	C258.114044,126.850929 258.289490,125.973228 258.800934,125.678391 
	C263.850922,122.767220 268.956604,119.952721 274.756439,117.003983 
	C278.269470,115.009819 281.782501,113.015656 285.637726,110.827248 
	C285.907227,112.709511 286.067169,113.826775 286.137207,115.639832 
	C286.176239,116.104576 286.215302,116.569328 286.160583,117.495148 
	C286.160583,117.495148 286.248138,117.957443 286.135895,118.632195 
	C286.175537,119.084793 286.215179,119.537399 286.119080,120.918785 
	C286.066772,125.389336 285.625641,129.903702 286.122467,134.312363 
	C286.379639,136.594345 287.791718,139.346863 289.578186,140.725800 
	C292.893738,143.285034 296.854065,145.015427 300.569061,147.048676 
	C304.001495,148.927261 305.557373,148.065369 304.955688,143.095093 
	C304.962463,133.453812 304.972656,123.812538 304.974823,114.171257 
	C304.976440,106.945366 303.372559,105.110329 295.967163,103.272377 
	C294.651550,102.503548 293.335938,101.734726 291.998779,101.000214 
	C291.998779,101.000214 292.030853,100.975891 291.603729,100.365456 
	C289.119537,100.200699 286.289398,99.195564 284.223114,100.046089 
	C279.919281,101.817657 276.019592,104.571068 271.330872,107.230537 
	C266.544739,110.464287 261.758575,113.698036 256.179779,116.971214 
	C250.408737,117.742722 249.021255,119.213295 249.035446,124.685692 
	C249.047852,129.472595 249.123016,134.259323 249.045059,139.966080 
	C249.088120,145.290741 249.131180,150.615387 249.084488,156.801132 
	C249.039246,158.531723 248.994003,160.262314 248.495590,162.348038 
	C248.301270,162.884628 248.106964,163.421219 247.455444,164.045731 
	C247.455444,164.045731 246.993713,164.105606 246.480087,164.121994 
	C246.290482,164.393738 246.100861,164.665482 245.947128,164.864899 
	C245.947128,164.864899 245.874786,164.829056 245.159531,164.888260 
	C241.091431,167.225677 237.023315,169.563095 232.506729,172.147446 
	C232.318787,172.427338 232.130844,172.707245 232.000351,172.977432 
M372.796814,270.146484 
	C372.538635,269.365173 372.125397,268.599213 372.046295,267.800201 
	C371.256012,259.819275 371.267059,259.859802 363.528656,259.031799 
	C359.990112,258.653168 358.682526,260.165894 358.901062,263.612946 
	C359.050018,265.963043 358.809265,268.337891 357.727264,270.783813 
	C354.067474,270.919128 350.166504,270.314056 346.818054,271.404968 
	C343.680969,272.427032 341.128937,275.244843 336.965424,278.249542 
	C336.965424,272.831543 337.113220,268.762482 336.924591,264.709045 
	C336.729126,260.508820 334.650055,259.509430 328.918243,260.002808 
	C325.016632,260.338623 325.038940,262.604492 325.350555,265.607208 
	C325.726288,269.227325 325.741547,272.892822 325.766846,276.539703 
	C325.821747,284.448090 325.783752,292.357117 325.783752,300.838989 
	C328.067688,300.838989 329.938446,301.187195 331.595703,300.741486 
	C333.268707,300.291626 335.058838,299.350830 336.199188,298.085693 
	C337.565155,296.570251 338.297180,294.483459 339.303741,292.644073 
	C341.075867,294.517090 342.804657,296.434021 344.639130,298.243835 
	C345.498993,299.092133 346.549988,300.339355 347.536438,300.360199 
	C351.069183,300.434723 354.611389,300.062134 359.158112,299.800690 
	C358.132965,297.987061 357.432159,296.284576 356.332062,294.899139 
	C354.164276,292.169037 351.553314,289.769196 349.571289,286.922455 
	C348.586121,285.507538 347.632629,282.654877 348.332703,281.765503 
	C349.991608,279.658020 352.471649,277.592346 354.972015,277.002136 
	C356.258362,276.698547 359.229034,279.297394 359.794281,281.100250 
	C360.805511,284.325500 360.912384,287.954865 360.770050,291.389343 
	C360.608154,295.296661 362.018860,298.104523 365.614471,299.108948 
	C368.712921,299.974457 372.064850,300.134918 375.314514,300.216705 
	C383.279266,300.417236 391.258942,300.637360 399.213318,300.337799 
	C402.401978,300.217682 407.453217,301.923401 407.809357,296.288361 
	C408.120972,291.358429 407.939667,286.243469 406.953003,281.419464 
	C405.244263,273.065369 400.208618,269.734406 391.815033,270.424744 
	C389.826263,270.588287 387.824890,270.780273 385.873718,271.177460 
	C382.758026,271.811737 379.906616,272.902435 380.596924,276.984009 
	C381.306824,281.181488 384.155640,280.274567 387.109650,279.833374 
	C389.721588,279.443237 392.437805,279.751648 395.108002,279.751648 
	C395.156433,280.456757 395.204895,281.161835 395.253357,281.866943 
	C393.499390,282.243408 391.732758,282.987610 389.993774,282.927887 
	C384.624359,282.743530 380.059845,283.331116 378.273621,289.658112 
	C377.971802,290.727264 375.127747,291.078735 373.458282,291.761810 
	C372.710510,289.491180 371.284119,287.182495 371.408783,284.960785 
	C371.529663,282.806030 372.786835,279.505005 374.363800,278.921936 
	C376.807495,278.018402 378.701508,277.163971 377.750366,274.742035 
	C377.087646,273.054657 374.770020,272.017181 372.796814,270.146484 
M314.286285,319.700989 
	C315.014435,319.729034 315.749573,319.702301 316.469604,319.794067 
	C320.965088,320.366974 325.493988,321.504974 329.926086,321.201843 
	C331.127289,321.119690 332.032318,316.707794 333.302338,313.749634 
	C323.368896,313.749634 314.484467,313.757935 305.600128,313.741425 
	C304.113678,313.738647 302.620850,313.512268 301.142670,313.596008 
	C299.176208,313.707336 297.042755,313.620819 295.323181,314.387115 
	C294.147675,314.910950 292.669067,316.968231 292.913422,317.941376 
	C293.272217,319.370331 295.074493,321.514893 296.217560,321.487854 
	C302.108704,321.348511 307.985748,320.613312 314.286285,319.700989 
M385.139496,314.557953 
	C383.337891,314.367279 381.537689,314.028564 379.734436,314.011597 
	C371.949677,313.938385 364.161224,314.082489 356.379456,313.908691 
	C349.696594,313.759430 349.196289,314.187836 350.387695,321.708771 
	C353.816223,321.050354 357.209961,320.398590 360.789368,319.711182 
	C361.702942,320.284119 363.390259,322.254486 365.009613,322.200134 
	C372.067993,321.963196 379.106598,321.137604 386.670990,320.480743 
	C386.371765,318.743378 386.047974,316.863403 385.139496,314.557953 
M217.626862,321.343872 
	C219.735245,321.016815 221.841431,320.674438 223.953049,320.369904 
	C224.841248,320.241791 225.746552,320.231995 226.634521,320.102753 
	C232.555450,319.240997 239.051010,324.959106 243.973602,318.587677 
	C244.721252,319.732330 245.282196,320.591125 246.266876,322.098663 
	C248.306244,315.805756 247.408615,314.222015 242.843658,314.052399 
	C235.979004,313.797394 229.108856,313.603668 222.240280,313.576477 
	C218.637405,313.562225 215.064148,314.007904 214.440384,318.457397 
	C212.507858,318.729462 210.852036,318.962585 209.196213,319.195709 
	C209.201736,319.640106 209.207245,320.084534 209.212769,320.528931 
	C211.748230,320.761719 214.283691,320.994476 217.626862,321.343872 
M289.177155,318.116150 
	C287.643188,316.560059 286.217285,313.812500 284.555878,313.661804 
	C278.557953,313.117798 272.480743,313.447815 265.948853,313.447815 
	C266.502411,317.059418 264.115143,321.020111 269.377563,321.367859 
	C275.401947,321.765961 281.455750,321.831146 287.493134,321.754700 
	C288.129730,321.746643 288.742004,319.813904 289.177155,318.116150 
M263.052795,314.837616 
	C260.488678,314.498566 257.915466,313.855988 255.363815,313.932465 
	C253.793152,313.979523 251.088501,314.941223 250.950851,315.816040 
	C250.681717,317.526520 251.276596,320.237488 252.529922,321.173218 
	C257.932281,325.206573 261.835205,322.967804 263.052795,314.837616 
M334.166992,238.256638 
	C324.374176,237.623184 323.661072,238.411514 325.617767,247.663712 
	C328.669159,247.663712 331.704224,247.663712 334.775146,247.663712 
	C334.775146,244.517471 334.775146,241.725327 334.166992,238.256638 
M338.865234,321.563721 
	C343.064209,324.618683 346.046570,322.442383 347.716797,315.355927 
	C345.183289,314.832001 342.628204,314.442993 340.155670,313.756714 
	C337.135376,312.918335 335.930237,314.416992 335.179108,316.997101 
	C334.357117,319.820648 335.585236,321.023224 338.865234,321.563721 
M248.993744,199.818207 
	C248.482742,205.222687 252.654953,204.558029 255.220032,203.681351 
	C260.178894,201.986557 257.494263,197.835495 257.517487,194.076126 
	C255.353806,194.076126 253.560318,193.976410 251.781906,194.097870 
	C248.543854,194.319000 247.248322,195.817993 248.993744,199.818207 
M235.926865,259.853180 
	C235.543121,254.251007 231.438828,256.218292 228.664062,256.664368 
	C225.292389,257.206390 226.242523,259.987396 226.304764,262.519226 
	C226.404495,266.575958 229.232635,265.686829 231.447174,265.928497 
	C235.391006,266.358887 236.202194,263.939941 235.926865,259.853180 
z"/>
<path fill="#34925F" opacity="1.000000" stroke="none" 
	d="
M366.010406,215.976562 
	C370.437653,217.076096 372.666718,218.930374 372.226593,224.455185 
	C371.599854,232.322556 372.768341,240.320251 372.930359,248.267151 
	C373.061707,254.709961 372.847687,254.719238 366.329834,255.033752 
	C364.558075,255.119232 362.805542,255.603058 360.230560,256.043121 
	C359.809631,253.924347 359.064575,251.802002 359.022064,249.665680 
	C358.872894,242.172012 358.848480,234.670822 359.021515,227.178131 
	C359.095673,223.966812 358.161804,221.856735 355.102203,220.506271 
	C352.564148,219.386002 350.114716,217.938736 347.879669,216.292068 
	C345.428925,214.486526 343.134796,213.379517 340.301361,215.332153 
	C337.204773,217.466110 335.131165,220.187653 335.156769,224.130051 
	C335.158691,224.430618 335.451538,224.718369 335.513641,225.031052 
	C337.589508,235.485443 336.597260,236.580826 324.980438,235.655106 
	C324.980438,226.325989 324.980438,216.905075 324.980438,207.484177 
	C324.980438,198.007431 324.980438,188.530685 324.980438,178.985580 
	C317.652069,180.760254 314.958618,183.948013 314.960663,190.609863 
	C314.968628,216.764603 314.983093,242.919327 314.746643,269.606934 
	C313.285706,270.038086 312.073212,269.936340 310.860718,269.834625 
	C304.480194,263.905762 298.099701,257.976929 291.275513,251.733551 
	C289.008240,248.219086 289.060852,245.066879 291.440491,241.973419 
	C292.783722,240.913605 294.637543,239.809448 294.596130,238.781723 
	C294.238892,229.921249 293.564209,221.072769 292.926758,212.224869 
	C292.754669,209.836548 292.386383,207.462357 291.805786,204.868652 
	C288.546814,201.070404 287.287628,193.507233 289.878174,192.742386 
	C290.543488,193.735428 291.261627,194.807297 292.311188,196.373795 
	C292.685272,195.085693 292.860901,194.480972 293.396301,193.919083 
	C297.403351,196.041946 301.050537,198.121979 306.018860,200.955460 
	C306.018860,192.298126 305.429688,184.737350 306.179871,177.311890 
	C306.974884,169.443039 304.534943,164.322983 297.007294,161.484009 
	C297.014526,160.784897 297.016998,160.385391 297.307068,159.808075 
	C299.936859,159.630280 302.279053,159.630280 305.331360,159.630280 
	C305.362732,159.502945 305.668640,158.261551 306.135864,156.835968 
	C306.297180,156.651794 306.608917,156.274216 306.608917,156.274200 
	C307.978455,156.949799 309.348022,157.625397 310.550293,158.687744 
	C309.732605,161.221359 308.760498,163.339188 308.563019,165.526947 
	C308.459229,166.676880 309.547119,168.099060 310.445404,169.078796 
	C310.730957,169.390259 312.726257,168.892639 312.920013,168.380020 
	C313.399933,167.110291 313.645325,165.533066 313.333923,164.235641 
	C312.894104,162.403366 311.867767,160.711884 311.092163,158.960205 
	C317.498993,161.177902 313.980194,166.842346 315.497192,171.649353 
	C318.487762,170.133926 321.630310,168.975388 324.273102,167.109192 
	C329.293945,163.563766 332.029236,163.290848 337.174530,166.643402 
	C339.504852,168.161789 341.697327,170.201645 344.263916,170.988068 
	C351.304962,173.145523 352.804810,177.832977 352.084747,184.513199 
	C351.536560,189.598801 352.436157,194.843613 351.854218,199.921600 
	C351.219879,205.456772 353.809082,208.363159 358.204956,210.684326 
	C360.797119,212.053055 363.177490,213.822800 365.492737,215.773132 
	C363.762604,218.390335 362.192780,220.646591 359.945129,223.877121 
	C362.800964,223.877121 363.988129,223.877121 364.008759,223.877121 
	C363.311798,227.518753 362.460632,230.965240 362.032532,234.463486 
	C361.529083,238.577545 360.850006,242.804199 361.353668,246.844040 
	C361.566833,248.553833 364.492279,250.081543 366.423798,251.319138 
	C366.954285,251.659042 368.347076,250.653091 369.344208,250.264740 
	C368.513214,248.845932 367.668091,247.435043 366.863739,246.001312 
	C366.711609,245.730087 366.721466,245.367996 366.656586,245.047852 
	C367.053253,245.109406 367.449921,245.170959 367.846588,245.232513 
	C368.563843,241.521500 369.320587,237.817596 369.989655,234.097916 
	C371.173523,227.516327 368.422852,221.779190 366.010406,215.976562 
M345.664917,211.995071 
	C348.218781,212.547928 352.438354,213.543274 351.037781,209.435501 
	C348.197418,201.105179 350.475037,192.935745 350.071350,184.732010 
	C349.692871,177.041489 349.165039,176.240524 341.464752,176.271774 
	C338.871552,170.873718 333.850555,168.822357 328.571655,168.560303 
	C326.214844,168.443314 323.709015,171.328232 322.267181,172.228577 
	C324.930817,176.686066 328.245758,179.826157 328.571320,183.250473 
	C329.396057,191.924454 328.798096,200.727402 328.950958,209.475540 
	C328.994446,211.964539 329.658966,214.442703 330.038696,216.925812 
	C332.358734,215.635010 334.680176,214.346710 336.995270,213.047134 
	C337.131897,212.970459 337.244202,212.818008 337.323273,212.675995 
	C339.447906,208.859207 342.088898,209.169006 345.664917,211.995071 
M312.450623,201.734879 
	C312.488953,195.916031 312.387787,190.090485 312.667328,184.283234 
	C312.734131,182.895645 313.863770,181.379257 314.883331,180.270401 
	C315.819519,179.252213 317.266235,178.703491 318.994263,177.634888 
	C316.014832,175.684418 313.739288,171.929153 310.685120,174.941635 
	C308.896667,176.705688 307.582611,181.316513 308.639465,183.185074 
	C312.948181,190.803055 310.526062,196.824310 305.852325,202.872391 
	C303.495117,205.922745 304.651093,207.941223 308.272919,209.555054 
	C309.662018,207.020020 310.914551,204.734253 312.450623,201.734879 
z"/>
<path fill="#0A0A0A" opacity="1.000000" stroke="none" 
	d="
M373.191650,270.689392 
	C374.770020,272.017181 377.087646,273.054657 377.750366,274.742035 
	C378.701508,277.163971 376.807495,278.018402 374.363800,278.921936 
	C372.786835,279.505005 371.529663,282.806030 371.408783,284.960785 
	C371.284119,287.182495 372.710510,289.491180 373.458282,291.761810 
	C375.127747,291.078735 377.971802,290.727264 378.273621,289.658112 
	C380.059845,283.331116 384.624359,282.743530 389.993774,282.927887 
	C391.732758,282.987610 393.499390,282.243408 395.253357,281.866943 
	C395.204895,281.161835 395.156433,280.456757 395.108002,279.751648 
	C392.437805,279.751648 389.721588,279.443237 387.109650,279.833374 
	C384.155640,280.274567 381.306824,281.181488 380.596924,276.984009 
	C379.906616,272.902435 382.758026,271.811737 385.873718,271.177460 
	C387.824890,270.780273 389.826263,270.588287 391.815033,270.424744 
	C400.208618,269.734406 405.244263,273.065369 406.953003,281.419464 
	C407.939667,286.243469 408.120972,291.358429 407.809357,296.288361 
	C407.453217,301.923401 402.401978,300.217682 399.213318,300.337799 
	C391.258942,300.637360 383.279266,300.417236 375.314514,300.216705 
	C372.064850,300.134918 368.712921,299.974457 365.614471,299.108948 
	C362.018860,298.104523 360.608154,295.296661 360.770050,291.389343 
	C360.912384,287.954865 360.805511,284.325500 359.794281,281.100250 
	C359.229034,279.297394 356.258362,276.698547 354.972015,277.002136 
	C352.471649,277.592346 349.991608,279.658020 348.332703,281.765503 
	C347.632629,282.654877 348.586121,285.507538 349.571289,286.922455 
	C351.553314,289.769196 354.164276,292.169037 356.332062,294.899139 
	C357.432159,296.284576 358.132965,297.987061 359.158112,299.800690 
	C354.611389,300.062134 351.069183,300.434723 347.536438,300.360199 
	C346.549988,300.339355 345.498993,299.092133 344.639130,298.243835 
	C342.804657,296.434021 341.075867,294.517090 339.303741,292.644073 
	C338.297180,294.483459 337.565155,296.570251 336.199188,298.085693 
	C335.058838,299.350830 333.268707,300.291626 331.595703,300.741486 
	C329.938446,301.187195 328.067688,300.838989 325.783752,300.838989 
	C325.783752,292.357117 325.821747,284.448090 325.766846,276.539703 
	C325.741547,272.892822 325.726288,269.227325 325.350555,265.607208 
	C325.038940,262.604492 325.016632,260.338623 328.918243,260.002808 
	C334.650055,259.509430 336.729126,260.508820 336.924591,264.709045 
	C337.113220,268.762482 336.965424,272.831543 336.965424,278.249542 
	C341.128937,275.244843 343.680969,272.427032 346.818054,271.404968 
	C350.166504,270.314056 354.067474,270.919128 358.595703,270.768280 
	C364.039948,270.731628 368.615814,270.710510 373.191650,270.689392 
z"/>
<path fill="#0A0A0A" opacity="1.000000" stroke="none" 
	d="
M256.807312,292.024078 
	C255.319641,293.328247 253.751495,294.552216 252.358337,295.950531 
	C246.626633,301.703461 237.028412,302.559143 230.538010,297.686707 
	C227.358826,295.300049 224.424637,295.474121 220.791962,296.945099 
	C216.265121,298.778168 211.422653,300.403046 206.605194,300.814178 
	C199.247208,301.442139 193.933990,296.966858 190.291809,291.128876 
	C185.511734,283.467072 188.786987,270.799500 196.616425,264.348663 
	C202.079681,259.847382 214.747360,260.367432 220.969421,265.233002 
	C223.132568,266.924561 225.066650,268.663116 222.682877,271.304230 
	C220.654938,273.551117 219.107147,277.278961 214.715271,273.929047 
	C210.553192,270.754425 204.832016,271.495789 202.013428,274.798553 
	C198.218704,279.245148 197.799271,283.726288 202.143494,287.632446 
	C204.341263,289.608612 208.700684,290.953735 211.402328,290.186920 
	C215.605728,288.993896 219.208618,287.866699 223.622559,290.988800 
	C222.197998,284.840820 222.693130,279.216431 227.382874,275.276215 
	C230.073746,273.015442 233.545746,270.972534 236.934036,270.390015 
	C246.289978,268.781494 252.141632,272.475159 255.826935,281.998962 
	C255.896210,284.854736 255.972229,286.934967 256.171997,289.173370 
	C256.449188,289.552246 256.619629,289.758881 256.869751,290.294922 
	C256.890686,291.100311 256.848999,291.562195 256.807312,292.024078 
M243.927399,281.333160 
	C240.789658,279.542480 237.309738,278.733337 235.429733,282.414856 
	C234.474777,284.284882 234.719452,288.157227 236.045731,289.423340 
	C237.456467,290.770111 241.394501,291.125763 243.141937,290.086426 
	C245.966583,288.406433 246.486710,285.036316 243.927399,281.333160 
z"/>
<path fill="#2D5B2E" opacity="1.000000" stroke="none" 
	d="
M310.425171,269.876556 
	C312.073212,269.936340 313.285706,270.038086 314.825562,270.069702 
	C317.618073,272.673523 320.640717,275.035553 322.367615,278.122467 
	C323.690521,280.487183 324.020325,283.884705 323.525818,286.591553 
	C323.270874,287.987152 320.255280,288.878387 317.975037,290.321594 
	C319.014526,291.856323 320.345032,293.820648 321.682648,295.795502 
	C314.440857,302.645599 304.039551,303.169952 296.273834,297.030975 
	C291.495880,293.253815 289.552094,286.458649 291.516327,280.399506 
	C292.940308,276.006897 299.947479,270.367279 304.514984,270.025513 
	C306.332367,269.889526 308.164337,269.948364 310.425171,269.876556 
z"/>
<path fill="#0A0A0A" opacity="1.000000" stroke="none" 
	d="
M271.918335,269.976196 
	C272.250183,269.973419 272.582062,269.973450 272.913849,269.967377 
	C286.612183,269.717346 289.272400,273.853882 290.011688,287.069305 
	C290.150421,289.549530 289.866638,292.054504 290.024445,294.532349 
	C290.267303,298.345184 288.921173,300.264496 284.827087,300.685516 
	C279.215820,301.262604 278.482483,300.693756 278.786438,295.114471 
	C278.983490,291.497528 279.082886,287.740112 278.281097,284.263550 
	C277.905518,282.634888 275.296417,281.521332 273.699585,280.174316 
	C272.494324,281.708252 270.596161,283.097687 270.239441,284.808533 
	C269.641571,287.675720 270.344543,290.796997 269.893005,293.717468 
	C269.554840,295.904663 268.479004,299.583527 267.352631,299.732513 
	C264.353760,300.129150 261.150085,298.977264 258.015259,297.677368 
	C257.989471,289.953094 257.976318,282.992493 257.963196,276.031891 
	C258.167450,272.142731 260.111237,270.526276 264.068542,270.882507 
	C265.829773,271.041046 267.664185,270.386505 270.063507,270.031830 
	C271.080536,269.967163 271.499420,269.971680 271.918335,269.976196 
z"/>
<path fill="#2F6234" opacity="1.000000" stroke="none" 
	d="
M238.091583,180.042038 
	C237.380341,182.108627 236.067688,184.170380 236.051041,186.242538 
	C235.887726,206.572968 235.940125,226.905121 235.931503,247.236786 
	C235.930649,249.225861 235.931412,251.214920 235.931412,253.696228 
	C233.276245,253.990417 230.878815,254.543839 228.537979,254.363342 
	C227.688736,254.297867 226.318954,252.491241 226.299164,251.457748 
	C226.068726,239.417023 225.872345,227.369873 226.030548,215.329193 
	C226.170120,204.705261 226.768219,194.087357 227.504486,183.333832 
	C228.699432,184.262741 229.553741,185.324585 230.703522,186.753662 
	C232.673859,183.407654 232.232819,177.910065 238.091583,180.042038 
z"/>
<path fill="#31915D" opacity="1.000000" stroke="none" 
	d="
M296.080750,103.965004 
	C303.372559,105.110329 304.976440,106.945366 304.974823,114.171257 
	C304.972656,123.812538 304.962463,133.453812 304.554810,143.700226 
	C297.133759,145.623810 288.275238,138.332748 287.933197,131.291641 
	C287.749329,127.506187 286.837921,123.756065 286.254822,119.990005 
	C286.215179,119.537399 286.175537,119.084793 286.242310,118.184021 
	C286.409546,117.490738 286.378113,117.256813 286.254364,117.034073 
	C286.215302,116.569328 286.176239,116.104576 286.353333,115.048141 
	C286.699371,113.186668 287.163239,111.843147 286.901947,110.659744 
	C285.719940,105.306572 286.786835,103.147614 292.030853,100.975891 
	C292.030853,100.975891 291.998779,101.000214 292.136230,101.288612 
	C293.542725,102.373009 294.811737,103.169006 296.080750,103.965004 
z"/>
<path fill="#2F7542" opacity="1.000000" stroke="none" 
	d="
M246.993713,164.105606 
	C246.993713,164.105606 247.455444,164.045731 247.905670,163.927643 
	C248.553528,163.204010 248.751144,162.598450 248.948761,161.992905 
	C248.994003,160.262314 249.039246,158.531723 249.284454,155.998199 
	C249.379776,149.812225 249.275116,144.429184 249.170456,139.046127 
	C249.123016,134.259323 249.047852,129.472595 249.035446,124.685692 
	C249.021255,119.213295 250.408737,117.742722 256.540985,117.354568 
	C256.241608,120.752068 255.533142,123.757095 254.956619,126.787239 
	C254.824539,127.481384 255.146896,128.261993 255.260117,129.002808 
	C256.092926,128.691315 256.925751,128.379822 257.758575,128.068314 
	C257.850006,144.380508 257.891754,160.693253 258.069641,177.004501 
	C258.111359,180.828293 256.731384,182.765030 252.657730,182.647400 
	C254.223755,182.896835 255.789780,183.146271 257.291046,183.385391 
	C258.823700,190.748245 258.803589,190.765747 249.351257,190.286423 
	C249.123566,185.086304 248.894699,179.859436 248.087708,174.178680 
	C241.522079,171.759735 244.141510,168.212967 245.874786,164.829056 
	C245.874786,164.829056 245.947128,164.864899 246.114746,164.769196 
	C246.525436,164.491669 246.762558,164.302383 246.993713,164.105606 
z"/>
<path fill="#30804D" opacity="1.000000" stroke="none" 
	d="
M291.072418,241.964523 
	C289.060852,245.066879 289.008240,248.219086 290.923553,251.769028 
	C288.238586,254.738434 285.461914,257.357849 282.367615,259.968140 
	C282.049988,259.958984 282.024689,259.759064 282.042358,259.358643 
	C282.279297,255.014053 282.839935,251.053207 282.647644,247.129227 
	C282.229614,238.597717 281.495361,230.078796 280.718903,221.570404 
	C280.580902,220.058197 279.614624,218.621582 279.398010,217.060242 
	C283.982849,214.913086 281.269104,211.810547 280.884583,208.846832 
	C280.202484,208.430695 279.592285,208.237808 278.719360,207.838974 
	C278.376221,206.762039 278.295746,205.891037 278.488770,204.826691 
	C279.674866,201.452133 282.355560,196.823364 281.162476,195.366104 
	C277.829285,191.294830 277.394501,186.696732 276.315063,182.144882 
	C275.515106,178.771332 273.770294,176.871841 270.130798,176.536774 
	C269.770721,170.368927 269.456146,164.666809 269.141602,158.964706 
	C271.499542,157.300308 273.857544,155.635910 276.459778,154.269623 
	C275.291962,156.134354 273.879883,157.700974 273.150421,158.510239 
	C275.285278,162.866348 277.244446,166.564362 278.931793,170.382477 
	C281.062897,175.204666 282.972443,180.124771 284.988220,185.344604 
	C284.492798,200.549500 284.357422,215.407379 287.095825,230.100327 
	C287.607117,232.843796 289.090454,235.406097 290.225525,238.379272 
	C290.574677,239.792526 290.823547,240.878525 291.072418,241.964523 
z"/>
<path fill="#2F8C56" opacity="1.000000" stroke="none" 
	d="
M284.977539,185.002655 
	C282.972443,180.124771 281.062897,175.204666 278.931793,170.382477 
	C277.244446,166.564362 275.285278,162.866348 273.150421,158.510239 
	C273.879883,157.700974 275.291962,156.134354 276.815796,154.254211 
	C276.927490,153.940689 276.956635,153.962143 277.300842,153.945740 
	C278.769196,153.319626 279.893341,152.709900 281.017517,152.100174 
	C288.730957,145.608856 288.979218,145.620453 297.419464,150.854858 
	C299.052094,151.867340 300.903656,152.526794 302.818115,153.696838 
	C302.982056,154.044601 302.899475,154.170349 302.514038,154.120056 
	C298.428009,152.924820 294.727448,151.779907 290.439026,150.453125 
	C290.678406,152.798019 290.842377,154.404160 290.896912,156.276947 
	C292.525482,157.677216 294.263519,158.810837 296.256042,159.954559 
	C296.680206,159.971756 296.849854,159.978806 297.019470,159.985870 
	C297.016998,160.385391 297.014526,160.784897 296.603394,161.617554 
	C295.910522,165.955673 295.801056,169.883942 295.284119,173.757858 
	C294.904053,176.606125 294.340485,179.537003 293.196167,182.139816 
	C292.387756,183.978622 290.470337,185.329834 288.810791,187.023239 
	C287.374908,186.432724 286.176239,185.717682 284.977539,185.002655 
z"/>
<path fill="#2E6737" opacity="1.000000" stroke="none" 
	d="
M272.108124,269.696899 
	C271.499420,269.971680 271.080536,269.967163 270.349915,269.921478 
	C269.741241,265.815216 269.444244,261.750153 269.374878,256.903137 
	C269.717957,245.016907 269.887329,233.912750 269.908752,222.808289 
	C269.913757,220.218262 269.416077,217.627274 269.149658,215.036728 
	C269.097931,206.993988 269.046204,198.951263 269.314911,190.174377 
	C269.803406,187.965866 269.971497,186.491531 270.427795,185.211792 
	C271.805328,189.356308 272.755463,193.352570 274.048248,197.234741 
	C274.614655,198.935593 275.880737,200.403458 276.889526,202.387115 
	C276.529175,204.791733 276.736145,207.331528 275.567810,208.676910 
	C272.298981,212.440933 273.277374,214.948090 276.926025,217.635864 
	C276.622375,218.830765 276.195099,219.653259 276.254883,220.438660 
	C277.196136,232.802124 278.149536,245.165543 279.302887,257.510010 
	C279.380188,258.337250 281.079681,259.012909 282.024689,259.759064 
	C282.024689,259.759064 282.049988,259.958984 282.029907,260.057739 
	C278.772552,263.243530 275.535217,266.330566 272.108124,269.696899 
z"/>
<path fill="#0F100F" opacity="1.000000" stroke="none" 
	d="
M314.076996,319.893524 
	C307.985748,320.613312 302.108704,321.348511 296.217560,321.487854 
	C295.074493,321.514893 293.272217,319.370331 292.913422,317.941376 
	C292.669067,316.968231 294.147675,314.910950 295.323181,314.387115 
	C297.042755,313.620819 299.176208,313.707336 301.142670,313.596008 
	C302.620850,313.512268 304.113678,313.738647 305.600128,313.741425 
	C314.484467,313.757935 323.368896,313.749634 333.302338,313.749634 
	C332.032318,316.707794 331.127289,321.119690 329.926086,321.201843 
	C325.493988,321.504974 320.965088,320.366974 316.469604,319.794067 
	C315.749573,319.702301 315.014435,319.729034 314.076996,319.893524 
z"/>
<path fill="#0F100F" opacity="1.000000" stroke="none" 
	d="
M385.431854,314.770691 
	C386.047974,316.863403 386.371765,318.743378 386.670990,320.480743 
	C379.106598,321.137604 372.067993,321.963196 365.009613,322.200134 
	C363.390259,322.254486 361.702942,320.284119 360.789368,319.711182 
	C357.209961,320.398590 353.816223,321.050354 350.387695,321.708771 
	C349.196289,314.187836 349.696594,313.759430 356.379456,313.908691 
	C364.161224,314.082489 371.949677,313.938385 379.734436,314.011597 
	C381.537689,314.028564 383.337891,314.367279 385.431854,314.770691 
M356.233246,318.132538 
	C356.326355,317.882721 356.419495,317.632874 356.512604,317.383026 
	C356.262512,317.379272 356.012390,317.375549 355.762329,317.371796 
	C355.820465,317.625641 355.878601,317.879517 356.233246,318.132538 
z"/>
<path fill="#0F100F" opacity="1.000000" stroke="none" 
	d="
M217.223007,321.285583 
	C214.283691,320.994476 211.748230,320.761719 209.212769,320.528931 
	C209.207245,320.084534 209.201736,319.640106 209.196213,319.195709 
	C210.852036,318.962585 212.507858,318.729462 214.440384,318.457397 
	C215.064148,314.007904 218.637405,313.562225 222.240280,313.576477 
	C229.108856,313.603668 235.979004,313.797394 242.843658,314.052399 
	C247.408615,314.222015 248.306244,315.805756 246.266876,322.098663 
	C245.282196,320.591125 244.721252,319.732330 243.973602,318.587677 
	C239.051010,324.959106 232.555450,319.240997 226.634521,320.102753 
	C225.746552,320.231995 224.841248,320.241791 223.953049,320.369904 
	C221.841431,320.674438 219.735245,321.016815 217.223007,321.285583 
z"/>
<path fill="#338C58" opacity="1.000000" stroke="none" 
	d="
M291.817291,100.670670 
	C286.786835,103.147614 285.719940,105.306572 286.901947,110.659744 
	C287.163239,111.843147 286.699371,113.186668 286.398315,114.700241 
	C286.067169,113.826775 285.907227,112.709511 285.637726,110.827248 
	C281.782501,113.015656 278.269470,115.009819 274.130768,116.907860 
	C271.555267,116.012535 269.605469,115.213333 267.655640,114.414131 
	C268.643585,112.927765 269.689026,111.475510 270.598236,109.942467 
	C271.157715,108.999123 271.509033,107.932358 271.953827,106.921013 
	C276.019592,104.571068 279.919281,101.817657 284.223114,100.046089 
	C286.289398,99.195564 289.119537,100.200699 291.817291,100.670670 
z"/>
<path fill="#0F100F" opacity="1.000000" stroke="none" 
	d="
M289.271362,318.445129 
	C288.742004,319.813904 288.129730,321.746643 287.493134,321.754700 
	C281.455750,321.831146 275.401947,321.765961 269.377563,321.367859 
	C264.115143,321.020111 266.502411,317.059418 265.948853,313.447815 
	C272.480743,313.447815 278.557953,313.117798 284.555878,313.661804 
	C286.217285,313.812500 287.643188,316.560059 289.271362,318.445129 
M284.870972,318.215149 
	C284.984711,318.153107 285.098450,318.091064 285.212189,318.029022 
	C285.128357,317.934875 285.044495,317.840759 284.960663,317.746613 
	C284.887787,317.854401 284.814880,317.962189 284.870972,318.215149 
z"/>
<path fill="#2E6737" opacity="1.000000" stroke="none" 
	d="
M245.517151,164.858658 
	C244.141510,168.212967 241.522079,171.759735 247.786041,173.933136 
	C244.942474,176.004669 241.822464,177.867844 238.397003,179.886536 
	C232.232819,177.910065 232.673859,183.407654 230.703522,186.753662 
	C229.553741,185.324585 228.699432,184.262741 227.574921,182.909409 
	C227.304703,182.617920 227.243210,182.460831 227.568237,182.092880 
	C229.248322,178.795609 230.603394,175.866287 231.958466,172.936951 
	C231.958466,172.936951 232.000351,172.977432 232.155640,172.815247 
	C232.547943,172.421265 232.762711,172.170425 232.955215,171.900513 
	C237.023315,169.563095 241.091431,167.225677 245.517151,164.858658 
z"/>
<path fill="#338C58" opacity="1.000000" stroke="none" 
	d="
M372.994232,270.417938 
	C368.615814,270.710510 364.039948,270.731628 359.103455,270.727203 
	C358.809265,268.337891 359.050018,265.963043 358.901062,263.612946 
	C358.682526,260.165894 359.990112,258.653168 363.528656,259.031799 
	C371.267059,259.859802 371.256012,259.819275 372.046295,267.800201 
	C372.125397,268.599213 372.538635,269.365173 372.994232,270.417938 
z"/>
<path fill="#30804D" opacity="1.000000" stroke="none" 
	d="
M271.642334,107.075775 
	C271.509033,107.932358 271.157715,108.999123 270.598236,109.942467 
	C269.689026,111.475510 268.643585,112.927765 267.655640,114.414131 
	C269.605469,115.213333 271.555267,116.012535 273.775818,116.961281 
	C268.956604,119.952721 263.850922,122.767220 258.800934,125.678391 
	C258.289490,125.973228 258.114044,126.850929 257.770630,127.763229 
	C256.925751,128.379822 256.092926,128.691315 255.260117,129.002808 
	C255.146896,128.261993 254.824539,127.481384 254.956619,126.787239 
	C255.533142,123.757095 256.241608,120.752068 256.937317,117.334854 
	C261.758575,113.698036 266.544739,110.464287 271.642334,107.075775 
z"/>
<path fill="#0F100F" opacity="1.000000" stroke="none" 
	d="
M263.222839,315.077393 
	C261.835205,322.967804 257.932281,325.206573 252.529922,321.173218 
	C251.276596,320.237488 250.681717,317.526520 250.950851,315.816040 
	C251.088501,314.941223 253.793152,313.979523 255.363815,313.932465 
	C257.915466,313.855988 260.488678,314.498566 263.222839,315.077393 
z"/>
<path fill="#34925F" opacity="1.000000" stroke="none" 
	d="
M334.471069,238.594910 
	C334.775146,241.725327 334.775146,244.517471 334.775146,247.663712 
	C331.704224,247.663712 328.669159,247.663712 325.617767,247.663712 
	C323.661072,238.411514 324.374176,237.623184 334.471069,238.594910 
z"/>
<path fill="#0F100F" opacity="1.000000" stroke="none" 
	d="
M338.551239,321.427460 
	C335.585236,321.023224 334.357117,319.820648 335.179108,316.997101 
	C335.930237,314.416992 337.135376,312.918335 340.155670,313.756714 
	C342.628204,314.442993 345.183289,314.832001 347.716797,315.355927 
	C346.046570,322.442383 343.064209,324.618683 338.551239,321.427460 
z"/>
<path fill="#2F7542" opacity="1.000000" stroke="none" 
	d="
M248.929642,199.404938 
	C247.248322,195.817993 248.543854,194.319000 251.781906,194.097870 
	C253.560318,193.976410 255.353806,194.076126 257.517487,194.076126 
	C257.494263,197.835495 260.178894,201.986557 255.220032,203.681351 
	C252.654953,204.558029 248.482742,205.222687 248.929642,199.404938 
z"/>
<path fill="#2F6234" opacity="1.000000" stroke="none" 
	d="
M235.942047,260.269348 
	C236.202194,263.939941 235.391006,266.358887 231.447174,265.928497 
	C229.232635,265.686829 226.404495,266.575958 226.304764,262.519226 
	C226.242523,259.987396 225.292389,257.206390 228.664062,256.664368 
	C231.438828,256.218292 235.543121,254.251007 235.942047,260.269348 
z"/>
<path fill="#338C58" opacity="1.000000" stroke="none" 
	d="
M286.186951,120.454391 
	C286.837921,123.756065 287.749329,127.506187 287.933197,131.291641 
	C288.275238,138.332748 297.133759,145.623810 304.490845,144.166870 
	C305.557373,148.065369 304.001495,148.927261 300.569061,147.048676 
	C296.854065,145.015427 292.893738,143.285034 289.578186,140.725800 
	C287.791718,139.346863 286.379639,136.594345 286.122467,134.312363 
	C285.625641,129.903702 286.066772,125.389336 286.186951,120.454391 
z"/>
<path fill="#7DA98C" opacity="1.000000" stroke="none" 
	d="
M269.099609,215.503601 
	C269.416077,217.627274 269.913757,220.218262 269.908752,222.808289 
	C269.887329,233.912750 269.717957,245.016907 269.419800,256.479858 
	C269.174591,243.215866 269.112091,229.593185 269.099609,215.503601 
z"/>
<path fill="#7DA98C" opacity="1.000000" stroke="none" 
	d="
M270.139587,185.017181 
	C269.971497,186.491531 269.803406,187.965866 269.378784,189.708099 
	C269.108215,179.955963 269.094238,169.935944 269.110901,159.440323 
	C269.456146,164.666809 269.770721,170.368927 270.077881,176.980164 
	C270.093506,180.265274 270.116547,182.641220 270.139587,185.017181 
z"/>
<path fill="#7DA98C" opacity="1.000000" stroke="none" 
	d="
M257.599609,276.159241 
	C257.976318,282.992493 257.989471,289.953094 257.959534,297.370514 
	C257.581665,296.154053 257.246918,294.480774 256.859741,292.415771 
	C256.848999,291.562195 256.890686,291.100311 256.882263,290.060669 
	C256.644043,289.204346 256.382751,289.048462 256.048248,289.015228 
	C255.972229,286.934967 255.896210,284.854736 255.914169,282.336273 
	C256.417450,280.027557 256.826752,278.157074 257.599609,276.159241 
z"/>
<path fill="#2F6234" opacity="1.000000" stroke="none" 
	d="
M231.601562,172.998413 
	C230.603394,175.866287 229.248322,178.795609 227.614624,182.022430 
	C225.143723,176.273087 225.307907,175.884109 231.601562,172.998413 
z"/>
<path fill="#2E6737" opacity="1.000000" stroke="none" 
	d="
M249.107758,139.506104 
	C249.275116,144.429184 249.379776,149.812225 249.329346,155.567657 
	C249.131180,150.615387 249.088120,145.290741 249.107758,139.506104 
z"/>
<path fill="#338C58" opacity="1.000000" stroke="none" 
	d="
M296.023956,103.618690 
	C294.811737,103.169006 293.542725,102.373009 292.147034,101.271454 
	C293.335938,101.734726 294.651550,102.503548 296.023956,103.618690 
z"/>
<path fill="#30804D" opacity="1.000000" stroke="none" 
	d="
M280.681763,152.051514 
	C279.893341,152.709900 278.769196,153.319626 277.297607,153.931122 
	C278.082123,153.289566 279.214050,152.646210 280.681763,152.051514 
z"/>
<path fill="#2E6737" opacity="1.000000" stroke="none" 
	d="
M248.722168,162.170471 
	C248.751144,162.598450 248.553528,163.204010 248.134277,163.883698 
	C248.106964,163.421219 248.301270,162.884628 248.722168,162.170471 
z"/>
<path fill="#34925F" opacity="1.000000" stroke="none" 
	d="
M304.049377,154.904648 
	C304.766510,155.212341 305.483612,155.520050 306.404846,156.050980 
	C306.608917,156.274216 306.297180,156.651794 305.874329,156.717987 
	C304.953949,156.229187 304.456390,155.674225 303.985474,155.067291 
	C304.012115,155.015335 304.049377,154.904648 304.049377,154.904648 
z"/>
<path fill="#2F6234" opacity="1.000000" stroke="none" 
	d="
M232.730972,172.023987 
	C232.762711,172.170425 232.547943,172.421265 232.126923,172.820099 
	C232.130844,172.707245 232.318787,172.427338 232.730972,172.023987 
z"/>
<path fill="#2E6737" opacity="1.000000" stroke="none" 
	d="
M246.736908,164.113800 
	C246.762558,164.302383 246.525436,164.491669 246.096802,164.805359 
	C246.100861,164.665482 246.290482,164.393738 246.736908,164.113800 
z"/>
<path fill="#2F8C56" opacity="1.000000" stroke="none" 
	d="
M303.025940,153.983490 
	C303.413116,153.983063 303.683289,154.157181 303.964844,154.674683 
	C304.049377,154.904648 304.012115,155.015335 303.804260,154.913025 
	C303.363556,154.597885 303.131226,154.384415 302.899475,154.170349 
	C302.899475,154.170349 302.982056,154.044601 303.025940,153.983490 
z"/>
<path fill="#338C58" opacity="1.000000" stroke="none" 
	d="
M286.207458,117.264610 
	C286.378113,117.256813 286.409546,117.490738 286.298401,117.846649 
	C286.248138,117.957443 286.160583,117.495148 286.207458,117.264610 
z"/>
<path fill="#2D975E" opacity="1.000000" stroke="none" 
	d="
M345.338684,211.850739 
	C342.088898,209.169006 339.447906,208.859207 337.323273,212.675995 
	C337.244202,212.818008 337.131897,212.970459 336.995270,213.047134 
	C334.680176,214.346710 332.358734,215.635010 330.038696,216.925812 
	C329.658966,214.442703 328.994446,211.964539 328.950958,209.475540 
	C328.798096,200.727402 329.396057,191.924454 328.571320,183.250473 
	C328.245758,179.826157 324.930817,176.686066 322.267181,172.228577 
	C323.709015,171.328232 326.214844,168.443314 328.571655,168.560303 
	C333.850555,168.822357 338.871552,170.873718 341.461212,176.277466 
	C349.165039,176.240524 349.692871,177.041489 350.071350,184.732010 
	C350.475037,192.935745 348.197418,201.105179 351.037781,209.435501 
	C352.438354,213.543274 348.218781,212.547928 345.338684,211.850739 
z"/>
<path fill="#000000" opacity="1.000000" stroke="none" 
	d="
M289.048004,186.898727 
	C290.470337,185.329834 292.387756,183.978622 293.196167,182.139816 
	C294.340485,179.537003 294.904053,176.606125 295.284119,173.757858 
	C295.801056,169.883942 295.910522,165.955673 296.598633,161.917145 
	C304.534943,164.322983 306.974884,169.443039 306.179871,177.311890 
	C305.429688,184.737350 306.018860,192.298126 306.018860,200.955460 
	C301.050537,198.121979 297.403351,196.041946 293.221924,193.588104 
	C291.065491,191.344788 293.484344,187.146408 289.048004,186.898727 
z"/>
<path fill="#338C58" opacity="1.000000" stroke="none" 
	d="
M288.810791,187.023239 
	C293.484344,187.146408 291.065491,191.344788 292.862091,193.545258 
	C292.860901,194.480972 292.685272,195.085693 292.311188,196.373795 
	C291.261627,194.807297 290.543488,193.735428 289.878174,192.742386 
	C287.287628,193.507233 288.546814,201.070404 291.756042,205.328781 
	C292.012939,214.944077 292.117462,223.888260 291.935760,232.826645 
	C291.900116,234.579971 290.757324,236.310806 290.125183,238.052002 
	C289.090454,235.406097 287.607117,232.843796 287.095825,230.100327 
	C284.357422,215.407379 284.492798,200.549500 284.988220,185.344604 
	C286.176239,185.717682 287.374908,186.432724 288.810791,187.023239 
z"/>
<path fill="#2D975E" opacity="1.000000" stroke="none" 
	d="
M366.004456,215.989548 
	C368.422852,221.779190 371.173523,227.516327 369.989655,234.097916 
	C369.320587,237.817596 368.563843,241.521500 367.846588,245.232513 
	C367.449921,245.170959 367.053253,245.109406 366.656586,245.047852 
	C366.721466,245.367996 366.711609,245.730087 366.863739,246.001312 
	C367.668091,247.435043 368.513214,248.845932 369.344208,250.264740 
	C368.347076,250.653091 366.954285,251.659042 366.423798,251.319138 
	C364.492279,250.081543 361.566833,248.553833 361.353668,246.844040 
	C360.850006,242.804199 361.529083,238.577545 362.032532,234.463486 
	C362.460632,230.965240 363.311798,227.518753 364.008759,223.877121 
	C363.988129,223.877121 362.800964,223.877121 359.945129,223.877121 
	C362.192780,220.646591 363.762604,218.390335 365.677795,216.061035 
	C366.023224,215.988007 365.998474,216.002533 366.004456,215.989548 
z"/>
<path fill="#2D975E" opacity="1.000000" stroke="none" 
	d="
M312.308838,202.091675 
	C310.914551,204.734253 309.662018,207.020020 308.272919,209.555054 
	C304.651093,207.941223 303.495117,205.922745 305.852325,202.872391 
	C310.526062,196.824310 312.948181,190.803055 308.639465,183.185074 
	C307.582611,181.316513 308.896667,176.705688 310.685120,174.941635 
	C313.739288,171.929153 316.014832,175.684418 318.994263,177.634888 
	C317.266235,178.703491 315.819519,179.252213 314.883331,180.270401 
	C313.863770,181.379257 312.734131,182.895645 312.667328,184.283234 
	C312.387787,190.090485 312.488953,195.916031 312.308838,202.091675 
z"/>
<path fill="#2D975E" opacity="1.000000" stroke="none" 
	d="
M302.514038,154.120056 
	C303.131226,154.384415 303.363556,154.597885 303.777649,154.964996 
	C304.456390,155.674225 304.953949,156.229187 305.713013,156.902161 
	C305.668640,158.261551 305.362732,159.502945 305.331360,159.630280 
	C302.279053,159.630280 299.936859,159.630280 297.307068,159.808075 
	C296.849854,159.978806 296.680206,159.971756 296.147583,159.645355 
	C294.191895,158.220779 292.599121,157.115524 291.006348,156.010284 
	C290.842377,154.404160 290.678406,152.798019 290.439026,150.453125 
	C294.727448,151.779907 298.428009,152.924820 302.514038,154.120056 
z"/>
<path fill="#000000" opacity="1.000000" stroke="none" 
	d="
M290.225494,238.379272 
	C290.757324,236.310806 291.900116,234.579971 291.935760,232.826645 
	C292.117462,223.888260 292.012939,214.944077 292.058380,205.541794 
	C292.386383,207.462357 292.754669,209.836548 292.926758,212.224869 
	C293.564209,221.072769 294.238892,229.921249 294.596130,238.781723 
	C294.637543,239.809448 292.783722,240.913605 291.440491,241.973419 
	C290.823547,240.878525 290.574677,239.792526 290.225494,238.379272 
z"/>
<path fill="#2D975E" opacity="1.000000" stroke="none" 
	d="
M311.082214,158.939697 
	C311.867767,160.711884 312.894104,162.403366 313.333923,164.235641 
	C313.645325,165.533066 313.399933,167.110291 312.920013,168.380020 
	C312.726257,168.892639 310.730957,169.390259 310.445404,169.078796 
	C309.547119,168.099060 308.459229,166.676880 308.563019,165.526947 
	C308.760498,163.339188 309.732605,161.221359 310.709900,158.982483 
	C311.036743,158.890488 311.072266,158.919174 311.082214,158.939697 
z"/>
<path fill="#000000" opacity="1.000000" stroke="none" 
	d="
M244.184753,281.612610 
	C246.486710,285.036316 245.966583,288.406433 243.141937,290.086426 
	C241.394501,291.125763 237.456467,290.770111 236.045731,289.423340 
	C234.719452,288.157227 234.474777,284.284882 235.429733,282.414856 
	C237.309738,278.733337 240.789658,279.542480 244.184753,281.612610 
z"/>
<path fill="#000000" opacity="1.000000" stroke="none" 
	d="
M256.171997,289.173370 
	C256.382751,289.048462 256.644043,289.204346 256.819641,289.717163 
	C256.619629,289.758881 256.449188,289.552246 256.171997,289.173370 
z"/>
<path fill="#2F7542" opacity="1.000000" stroke="none" 
	d="
M282.042358,259.358643 
	C281.079681,259.012909 279.380188,258.337250 279.302887,257.510010 
	C278.149536,245.165543 277.196136,232.802124 276.254883,220.438660 
	C276.195099,219.653259 276.622375,218.830765 277.255676,217.569580 
	C278.135803,217.125763 278.583313,217.137909 279.030823,217.150070 
	C279.614624,218.621582 280.580902,220.058197 280.718903,221.570404 
	C281.495361,230.078796 282.229614,238.597717 282.647644,247.129227 
	C282.839935,251.053207 282.279297,255.014053 282.042358,259.358643 
z"/>
<path fill="#2F7542" opacity="1.000000" stroke="none" 
	d="
M270.427795,185.211792 
	C270.116547,182.641220 270.093506,180.265274 270.123352,177.445923 
	C273.770294,176.871841 275.515106,178.771332 276.315063,182.144882 
	C277.394501,186.696732 277.829285,191.294830 281.162476,195.366104 
	C282.355560,196.823364 279.674866,201.452133 278.420715,204.471024 
	C277.948334,203.024155 277.817474,201.739609 277.542267,199.037964 
	C277.060364,201.024078 276.944763,201.500595 276.829132,201.977112 
	C275.880737,200.403458 274.614655,198.935593 274.048248,197.234741 
	C272.755463,193.352570 271.805328,189.356308 270.427795,185.211792 
M277.975464,197.524597 
	C277.975464,197.524597 277.958679,197.474136 277.975464,197.524597 
M279.512115,195.516586 
	C279.512115,195.516586 279.503174,195.486984 279.512115,195.516586 
z"/>
<path fill="#000000" opacity="1.000000" stroke="none" 
	d="
M276.889526,202.387115 
	C276.944763,201.500595 277.060364,201.024078 277.542267,199.037964 
	C277.817474,201.739609 277.948334,203.024155 278.147217,204.664368 
	C278.295746,205.891037 278.376221,206.762039 278.871704,208.091248 
	C279.843323,208.723007 280.399902,208.896545 280.956482,209.070084 
	C281.269104,211.810547 283.982849,214.913086 279.398010,217.060242 
	C278.583313,217.137909 278.135803,217.125763 277.358643,217.179916 
	C273.277374,214.948090 272.298981,212.440933 275.567810,208.676910 
	C276.736145,207.331528 276.529175,204.791733 276.889526,202.387115 
z"/>
<path fill="#2F7542" opacity="1.000000" stroke="none" 
	d="
M280.884583,208.846832 
	C280.399902,208.896545 279.843323,208.723007 279.134399,208.297180 
	C279.592285,208.237808 280.202484,208.430695 280.884583,208.846832 
z"/>
<path fill="#34925F" opacity="1.000000" stroke="none" 
	d="
M290.896881,156.276947 
	C292.599121,157.115524 294.191895,158.220779 295.893127,159.635239 
	C294.263519,158.810837 292.525482,157.677216 290.896881,156.276947 
z"/>
<path fill="#000000" opacity="1.000000" stroke="none" 
	d="
M356.085022,318.132935 
	C355.878601,317.879517 355.820465,317.625641 355.762329,317.371796 
	C356.012390,317.375549 356.262512,317.379272 356.512634,317.383026 
	C356.419495,317.632874 356.326355,317.882721 356.085022,318.132935 
z"/>
<path fill="#000000" opacity="1.000000" stroke="none" 
	d="
M284.806488,318.142578 
	C284.814880,317.962189 284.887787,317.854401 284.960663,317.746613 
	C285.044495,317.840759 285.128357,317.934875 285.212189,318.029022 
	C285.098450,318.091064 284.984711,318.153107 284.806488,318.142578 
z"/>
<path fill="#30804D" opacity="1.000000" stroke="none" 
	d="
M277.967072,197.499359 
	C277.958679,197.474136 277.975464,197.524597 277.967072,197.499359 
z"/>
<path fill="#30804D" opacity="1.000000" stroke="none" 
	d="
M279.507629,195.501785 
	C279.503174,195.486984 279.512115,195.516586 279.507629,195.501785 
z"/>
</svg>