<svg width="15" height="12" viewBox="0 0 15 12" fill="none" xmlns="http://www.w3.org/2000/svg">
<path d="M14.9011 4.08443L13.4057 0.602915C13.3506 0.474773 13.2743 0.360513 13.1813 0.26666C13.0882 0.172808 12.9802 0.101202 12.8634 0.05593C12.7466 0.0106584 12.6232 -0.00739138 12.5004 0.00281146C12.3776 0.0130143 12.2577 0.0512701 12.1476 0.115394L10.6902 0.96293L7.62024 0.0178894C7.54147 -0.00596315 7.45876 -0.00596315 7.37999 0.0178894L4.31002 0.96293L2.85267 0.115394C2.74256 0.0512701 2.62266 0.0130143 2.49984 0.00281146C2.37701 -0.00739138 2.25367 0.0106584 2.13684 0.05593C2.02001 0.101202 1.91199 0.172808 1.81894 0.26666C1.7259 0.360513 1.64966 0.474773 1.59457 0.602915L0.0991339 4.08375C0.0440256 4.21188 0.0111485 4.35139 0.00238013 4.4943C-0.00638825 4.63722 0.00912382 4.78075 0.0480305 4.91669C0.0869372 5.05263 0.148476 5.17832 0.229134 5.28659C0.309791 5.39485 0.407987 5.48357 0.518113 5.54767L2.10027 6.46885L5.3519 9.17101C5.39984 9.21062 5.45369 9.23952 5.5107 9.25624L9.261 10.3472C9.33954 10.3701 9.42184 10.369 9.49989 10.3439C9.57793 10.3188 9.64906 10.2706 9.70635 10.204L12.0503 7.47662L12.9339 6.44839L14.4821 5.54767C14.7044 5.41821 14.8734 5.19136 14.9519 4.91697C15.0305 4.64259 15.0122 4.34313 14.9011 4.08443ZM11.6846 6.35975L9.66826 4.48058C9.57793 4.39641 9.46403 4.35409 9.34849 4.36176C9.23295 4.36944 9.12393 4.42658 9.04243 4.52218C7.99879 5.74541 6.83561 5.59063 6.09375 5.04515L8.62755 2.18139H10.4916L12.086 5.89133L11.6846 6.35975ZM9.23111 9.21397L5.82537 8.22324L2.94233 5.82723L4.58309 2.00888L7.50012 1.10953L8.07438 1.28613L5.43745 4.26444L5.43276 4.27057C5.3335 4.38607 5.2578 4.52604 5.21123 4.68013C5.16467 4.83423 5.14844 4.99852 5.16374 5.16089C5.17904 5.32326 5.22547 5.47956 5.29962 5.61826C5.37377 5.75695 5.47374 5.87451 5.59215 5.96224C6.79694 6.8575 8.25076 6.71227 9.39578 5.62131L11.016 7.1357L9.23111 9.21397ZM7.72396 11.5868C7.69864 11.7047 7.6402 11.8094 7.55793 11.8842C7.47566 11.9591 7.37426 11.9998 7.26982 12C7.2313 12 7.19292 11.9945 7.15556 11.9836L4.71142 11.2725C4.65431 11.2561 4.60041 11.2271 4.55262 11.1872L3.00855 9.904C2.91361 9.81726 2.85108 9.69125 2.83398 9.55221C2.81689 9.41318 2.84655 9.27182 2.91678 9.15759C2.98701 9.04335 3.0924 8.96505 3.21101 8.93897C3.32962 8.91289 3.4523 8.94106 3.55351 9.0176L5.02492 10.2408L7.38292 10.9254C7.50351 10.9605 7.60718 11.0499 7.67114 11.1739C7.73509 11.298 7.75409 11.4465 7.72396 11.5868Z" fill="#257448"/>
</svg>
