<svg width="15" height="15" viewBox="0 0 15 15" fill="none" xmlns="http://www.w3.org/2000/svg">
<path fill-rule="evenodd" clip-rule="evenodd" d="M3.71264 2.82583V1.80369C3.71275 1.43767 3.83271 1.08383 4.05072 0.806489C4.26873 0.529148 4.57032 0.346709 4.90068 0.292328L5.87343 0.132455C6.95182 -0.0441516 8.04818 -0.0441516 9.12657 0.132455L10.0993 0.292328C10.4297 0.346709 10.7313 0.529148 10.9493 0.806489C11.1673 1.08383 11.2872 1.43767 11.2874 1.80369V2.82583L12.654 2.94639C13.1625 2.9914 13.6425 3.2219 14.0173 3.60105C14.3921 3.9802 14.64 4.48609 14.7215 5.03785C15.0928 7.5474 15.0928 10.1061 14.7215 12.6156C14.64 13.1674 14.3921 13.6733 14.0173 14.0524C13.6425 14.4316 13.1625 14.6621 12.654 14.7071L11.1614 14.8381C8.72443 15.054 6.27557 15.054 3.83862 14.8381L2.346 14.7071C1.83754 14.6621 1.35753 14.4316 0.982725 14.0524C0.60792 13.6733 0.359964 13.1674 0.278503 12.6156C-0.0928344 10.1061 -0.0928344 7.5474 0.278503 5.03785C0.360126 4.48625 0.608152 3.98056 0.982943 3.60158C1.35773 3.22261 1.83765 2.99223 2.346 2.94727L3.71264 2.82583ZM6.05124 1.42804C7.01175 1.27085 7.98825 1.27085 8.94876 1.42804L9.92152 1.58791C9.96871 1.59565 10.0118 1.62168 10.043 1.66128C10.0741 1.70088 10.0913 1.75141 10.0914 1.80369V2.7341C8.36519 2.62609 6.63481 2.62609 4.90865 2.7341V1.80282C4.9087 1.75053 4.92586 1.7 4.95703 1.6604C4.98819 1.62081 5.03129 1.59477 5.07848 1.58704L6.05124 1.42804ZM3.9351 4.12054C6.30798 3.91087 8.69202 3.91087 11.0649 4.12054L12.5575 4.25333C12.7994 4.27454 13.0278 4.38402 13.2062 4.56425C13.3845 4.74449 13.5026 4.98508 13.5414 5.24751C13.5909 5.58357 13.6334 5.92079 13.669 6.25917C11.7497 7.29422 9.63916 7.8325 7.5 7.8325C5.36084 7.8325 3.25026 7.29422 1.33099 6.25917C1.36607 5.92137 1.4086 5.58415 1.45856 5.24751C1.4974 4.98508 1.61545 4.74449 1.79383 4.56425C1.97221 4.38402 2.2006 4.27454 2.44248 4.25333L3.9351 4.12054ZM1.22415 7.65347C3.19508 8.63513 5.33499 9.14304 7.5 9.14304C9.66501 9.14304 11.8049 8.63513 13.7759 7.65347C13.8522 9.24227 13.7736 10.8355 13.5414 12.406C13.5028 12.6686 13.3848 12.9094 13.2064 13.0898C13.028 13.2702 12.7995 13.3798 12.5575 13.401L11.0649 13.5321C8.69202 13.7417 6.30798 13.7417 3.9351 13.5321L2.44248 13.401C2.20049 13.3798 1.972 13.2702 1.79361 13.0898C1.61522 12.9094 1.49724 12.6686 1.45856 12.406C1.22654 10.8335 1.1476 9.23997 1.22415 7.65347Z" fill="#257448"/>
</svg>
